<mxfile host="app.diagrams.net" agent="Mozilla/5.0 (Macintosh; Intel Mac OS X 10_15_7) AppleWebKit/537.36 (KHTML, like Gecko) Chrome/128.0.0.0 Safari/537.36" version="24.7.12">
  <diagram name="Page-1" id="C01CktOsoUlpyACtRMB-">
    <mxGraphModel dx="2159" dy="1035" grid="1" gridSize="10" guides="1" tooltips="1" connect="1" arrows="1" fold="1" page="1" pageScale="1" pageWidth="850" pageHeight="1100" math="0" shadow="0">
      <root>
        <mxCell id="0" />
        <mxCell id="1" parent="0" />
        <mxCell id="8xyQKnSqyoeRqNO3VlQX-2" value="" style="rounded=0;whiteSpace=wrap;html=1;fillColor=#2e7956;" vertex="1" parent="1">
          <mxGeometry x="-80" y="130" width="1240" height="260" as="geometry" />
        </mxCell>
        <mxCell id="8xyQKnSqyoeRqNO3VlQX-3" value="" style="rounded=0;whiteSpace=wrap;html=1;fillColor=#e5dc7b;" vertex="1" parent="1">
          <mxGeometry x="50" y="370" width="10" height="20" as="geometry" />
        </mxCell>
        <mxCell id="8xyQKnSqyoeRqNO3VlQX-4" value="" style="rounded=0;whiteSpace=wrap;html=1;fillColor=#e5dc7b;" vertex="1" parent="1">
          <mxGeometry x="60" y="370" width="10" height="20" as="geometry" />
        </mxCell>
        <mxCell id="8xyQKnSqyoeRqNO3VlQX-5" value="" style="rounded=0;whiteSpace=wrap;html=1;fillColor=#e5dc7b;" vertex="1" parent="1">
          <mxGeometry x="70" y="370" width="10" height="20" as="geometry" />
        </mxCell>
        <mxCell id="8xyQKnSqyoeRqNO3VlQX-6" value="" style="rounded=0;whiteSpace=wrap;html=1;fillColor=#e5dc7b;" vertex="1" parent="1">
          <mxGeometry x="80" y="370" width="10" height="20" as="geometry" />
        </mxCell>
        <mxCell id="8xyQKnSqyoeRqNO3VlQX-7" value="" style="rounded=0;whiteSpace=wrap;html=1;fillColor=#e5dc7b;" vertex="1" parent="1">
          <mxGeometry x="90" y="370" width="10" height="20" as="geometry" />
        </mxCell>
        <mxCell id="8xyQKnSqyoeRqNO3VlQX-8" value="" style="rounded=0;whiteSpace=wrap;html=1;fillColor=#e5dc7b;" vertex="1" parent="1">
          <mxGeometry x="100" y="370" width="10" height="20" as="geometry" />
        </mxCell>
        <mxCell id="8xyQKnSqyoeRqNO3VlQX-9" value="" style="rounded=0;whiteSpace=wrap;html=1;fillColor=#e5dc7b;" vertex="1" parent="1">
          <mxGeometry x="110" y="370" width="10" height="20" as="geometry" />
        </mxCell>
        <mxCell id="8xyQKnSqyoeRqNO3VlQX-10" value="" style="rounded=0;whiteSpace=wrap;html=1;fillColor=#e5dc7b;" vertex="1" parent="1">
          <mxGeometry x="120" y="370" width="10" height="20" as="geometry" />
        </mxCell>
        <mxCell id="8xyQKnSqyoeRqNO3VlQX-11" value="" style="rounded=0;whiteSpace=wrap;html=1;fillColor=#e5dc7b;" vertex="1" parent="1">
          <mxGeometry x="130" y="370" width="10" height="20" as="geometry" />
        </mxCell>
        <mxCell id="8xyQKnSqyoeRqNO3VlQX-12" value="" style="rounded=0;whiteSpace=wrap;html=1;fillColor=#e5dc7b;" vertex="1" parent="1">
          <mxGeometry x="140" y="370" width="10" height="20" as="geometry" />
        </mxCell>
        <mxCell id="8xyQKnSqyoeRqNO3VlQX-13" value="" style="rounded=0;whiteSpace=wrap;html=1;fillColor=#e5dc7b;" vertex="1" parent="1">
          <mxGeometry x="150" y="370" width="10" height="20" as="geometry" />
        </mxCell>
        <mxCell id="8xyQKnSqyoeRqNO3VlQX-14" value="" style="rounded=0;whiteSpace=wrap;html=1;fillColor=#e5dc7b;" vertex="1" parent="1">
          <mxGeometry x="160" y="370" width="10" height="20" as="geometry" />
        </mxCell>
        <mxCell id="8xyQKnSqyoeRqNO3VlQX-15" value="" style="rounded=0;whiteSpace=wrap;html=1;fillColor=#e5dc7b;" vertex="1" parent="1">
          <mxGeometry x="170" y="370" width="10" height="20" as="geometry" />
        </mxCell>
        <mxCell id="8xyQKnSqyoeRqNO3VlQX-16" value="" style="rounded=0;whiteSpace=wrap;html=1;fillColor=#e5dc7b;" vertex="1" parent="1">
          <mxGeometry x="180" y="370" width="10" height="20" as="geometry" />
        </mxCell>
        <mxCell id="8xyQKnSqyoeRqNO3VlQX-17" value="" style="rounded=0;whiteSpace=wrap;html=1;fillColor=#e5dc7b;" vertex="1" parent="1">
          <mxGeometry x="190" y="370" width="10" height="20" as="geometry" />
        </mxCell>
        <mxCell id="8xyQKnSqyoeRqNO3VlQX-18" value="" style="rounded=0;whiteSpace=wrap;html=1;fillColor=#e5dc7b;" vertex="1" parent="1">
          <mxGeometry x="200" y="370" width="10" height="20" as="geometry" />
        </mxCell>
        <mxCell id="8xyQKnSqyoeRqNO3VlQX-19" value="" style="rounded=0;whiteSpace=wrap;html=1;fillColor=#e5dc7b;" vertex="1" parent="1">
          <mxGeometry x="210" y="370" width="10" height="20" as="geometry" />
        </mxCell>
        <mxCell id="8xyQKnSqyoeRqNO3VlQX-20" value="" style="rounded=0;whiteSpace=wrap;html=1;fillColor=#e5dc7b;" vertex="1" parent="1">
          <mxGeometry x="220" y="370" width="10" height="20" as="geometry" />
        </mxCell>
        <mxCell id="8xyQKnSqyoeRqNO3VlQX-21" value="" style="rounded=0;whiteSpace=wrap;html=1;fillColor=#e5dc7b;" vertex="1" parent="1">
          <mxGeometry x="230" y="370" width="10" height="20" as="geometry" />
        </mxCell>
        <mxCell id="8xyQKnSqyoeRqNO3VlQX-22" value="" style="rounded=0;whiteSpace=wrap;html=1;fillColor=#e5dc7b;" vertex="1" parent="1">
          <mxGeometry x="240" y="370" width="10" height="20" as="geometry" />
        </mxCell>
        <mxCell id="8xyQKnSqyoeRqNO3VlQX-23" value="" style="rounded=0;whiteSpace=wrap;html=1;fillColor=#e5dc7b;" vertex="1" parent="1">
          <mxGeometry x="250" y="370" width="10" height="20" as="geometry" />
        </mxCell>
        <mxCell id="8xyQKnSqyoeRqNO3VlQX-24" value="" style="rounded=0;whiteSpace=wrap;html=1;fillColor=#e5dc7b;" vertex="1" parent="1">
          <mxGeometry x="260" y="370" width="10" height="20" as="geometry" />
        </mxCell>
        <mxCell id="8xyQKnSqyoeRqNO3VlQX-25" value="" style="rounded=0;whiteSpace=wrap;html=1;fillColor=#e5dc7b;" vertex="1" parent="1">
          <mxGeometry x="270" y="370" width="10" height="20" as="geometry" />
        </mxCell>
        <mxCell id="8xyQKnSqyoeRqNO3VlQX-26" value="" style="rounded=0;whiteSpace=wrap;html=1;fillColor=#e5dc7b;" vertex="1" parent="1">
          <mxGeometry x="280" y="370" width="10" height="20" as="geometry" />
        </mxCell>
        <mxCell id="8xyQKnSqyoeRqNO3VlQX-27" value="" style="rounded=0;whiteSpace=wrap;html=1;fillColor=#e5dc7b;" vertex="1" parent="1">
          <mxGeometry x="290" y="370" width="10" height="20" as="geometry" />
        </mxCell>
        <mxCell id="8xyQKnSqyoeRqNO3VlQX-28" value="" style="rounded=0;whiteSpace=wrap;html=1;fillColor=#e5dc7b;" vertex="1" parent="1">
          <mxGeometry x="300" y="370" width="10" height="20" as="geometry" />
        </mxCell>
        <mxCell id="8xyQKnSqyoeRqNO3VlQX-29" value="" style="rounded=0;whiteSpace=wrap;html=1;fillColor=#e5dc7b;" vertex="1" parent="1">
          <mxGeometry x="310" y="370" width="10" height="20" as="geometry" />
        </mxCell>
        <mxCell id="8xyQKnSqyoeRqNO3VlQX-30" value="" style="rounded=0;whiteSpace=wrap;html=1;fillColor=#e5dc7b;" vertex="1" parent="1">
          <mxGeometry x="320" y="370" width="10" height="20" as="geometry" />
        </mxCell>
        <mxCell id="8xyQKnSqyoeRqNO3VlQX-31" value="" style="rounded=0;whiteSpace=wrap;html=1;fillColor=#e5dc7b;" vertex="1" parent="1">
          <mxGeometry x="330" y="370" width="10" height="20" as="geometry" />
        </mxCell>
        <mxCell id="8xyQKnSqyoeRqNO3VlQX-32" value="" style="rounded=0;whiteSpace=wrap;html=1;fillColor=#e5dc7b;" vertex="1" parent="1">
          <mxGeometry x="340" y="370" width="10" height="20" as="geometry" />
        </mxCell>
        <mxCell id="8xyQKnSqyoeRqNO3VlQX-33" value="" style="rounded=0;whiteSpace=wrap;html=1;fillColor=#e5dc7b;" vertex="1" parent="1">
          <mxGeometry x="350" y="370" width="10" height="20" as="geometry" />
        </mxCell>
        <mxCell id="8xyQKnSqyoeRqNO3VlQX-34" value="" style="rounded=0;whiteSpace=wrap;html=1;fillColor=#e5dc7b;" vertex="1" parent="1">
          <mxGeometry x="360" y="370" width="10" height="20" as="geometry" />
        </mxCell>
        <mxCell id="8xyQKnSqyoeRqNO3VlQX-35" value="" style="rounded=0;whiteSpace=wrap;html=1;fillColor=#e5dc7b;" vertex="1" parent="1">
          <mxGeometry x="370" y="370" width="10" height="20" as="geometry" />
        </mxCell>
        <mxCell id="8xyQKnSqyoeRqNO3VlQX-36" value="" style="rounded=0;whiteSpace=wrap;html=1;fillColor=#e5dc7b;" vertex="1" parent="1">
          <mxGeometry x="380" y="370" width="10" height="20" as="geometry" />
        </mxCell>
        <mxCell id="8xyQKnSqyoeRqNO3VlQX-37" value="" style="rounded=0;whiteSpace=wrap;html=1;fillColor=#e5dc7b;" vertex="1" parent="1">
          <mxGeometry x="390" y="370" width="10" height="20" as="geometry" />
        </mxCell>
        <mxCell id="8xyQKnSqyoeRqNO3VlQX-38" value="" style="rounded=0;whiteSpace=wrap;html=1;fillColor=#e5dc7b;" vertex="1" parent="1">
          <mxGeometry x="400" y="370" width="10" height="20" as="geometry" />
        </mxCell>
        <mxCell id="8xyQKnSqyoeRqNO3VlQX-39" value="" style="rounded=0;whiteSpace=wrap;html=1;fillColor=#e5dc7b;" vertex="1" parent="1">
          <mxGeometry x="410" y="370" width="10" height="20" as="geometry" />
        </mxCell>
        <mxCell id="8xyQKnSqyoeRqNO3VlQX-40" value="" style="rounded=0;whiteSpace=wrap;html=1;fillColor=#e5dc7b;" vertex="1" parent="1">
          <mxGeometry x="420" y="370" width="10" height="20" as="geometry" />
        </mxCell>
        <mxCell id="8xyQKnSqyoeRqNO3VlQX-41" value="" style="rounded=0;whiteSpace=wrap;html=1;fillColor=#e5dc7b;" vertex="1" parent="1">
          <mxGeometry x="650" y="370" width="10" height="20" as="geometry" />
        </mxCell>
        <mxCell id="8xyQKnSqyoeRqNO3VlQX-42" value="" style="rounded=0;whiteSpace=wrap;html=1;fillColor=#e5dc7b;" vertex="1" parent="1">
          <mxGeometry x="666" y="370" width="10" height="20" as="geometry" />
        </mxCell>
        <mxCell id="8xyQKnSqyoeRqNO3VlQX-43" value="" style="rounded=0;whiteSpace=wrap;html=1;fillColor=#e5dc7b;" vertex="1" parent="1">
          <mxGeometry x="676" y="370" width="10" height="20" as="geometry" />
        </mxCell>
        <mxCell id="8xyQKnSqyoeRqNO3VlQX-44" value="" style="rounded=0;whiteSpace=wrap;html=1;fillColor=#e5dc7b;" vertex="1" parent="1">
          <mxGeometry x="686" y="370" width="10" height="20" as="geometry" />
        </mxCell>
        <mxCell id="8xyQKnSqyoeRqNO3VlQX-45" value="" style="rounded=0;whiteSpace=wrap;html=1;fillColor=#e5dc7b;" vertex="1" parent="1">
          <mxGeometry x="696" y="370" width="10" height="20" as="geometry" />
        </mxCell>
        <mxCell id="8xyQKnSqyoeRqNO3VlQX-46" value="" style="rounded=0;whiteSpace=wrap;html=1;fillColor=#e5dc7b;" vertex="1" parent="1">
          <mxGeometry x="706" y="370" width="10" height="20" as="geometry" />
        </mxCell>
        <mxCell id="8xyQKnSqyoeRqNO3VlQX-47" value="" style="rounded=0;whiteSpace=wrap;html=1;fillColor=#e5dc7b;" vertex="1" parent="1">
          <mxGeometry x="716" y="370" width="10" height="20" as="geometry" />
        </mxCell>
        <mxCell id="8xyQKnSqyoeRqNO3VlQX-48" value="" style="rounded=0;whiteSpace=wrap;html=1;fillColor=#e5dc7b;" vertex="1" parent="1">
          <mxGeometry x="726" y="370" width="10" height="20" as="geometry" />
        </mxCell>
        <mxCell id="8xyQKnSqyoeRqNO3VlQX-49" value="" style="rounded=0;whiteSpace=wrap;html=1;fillColor=#e5dc7b;" vertex="1" parent="1">
          <mxGeometry x="736" y="370" width="10" height="20" as="geometry" />
        </mxCell>
        <mxCell id="8xyQKnSqyoeRqNO3VlQX-50" value="" style="rounded=0;whiteSpace=wrap;html=1;fillColor=#e5dc7b;" vertex="1" parent="1">
          <mxGeometry x="746" y="370" width="10" height="20" as="geometry" />
        </mxCell>
        <mxCell id="8xyQKnSqyoeRqNO3VlQX-51" value="" style="rounded=0;whiteSpace=wrap;html=1;fillColor=#e5dc7b;" vertex="1" parent="1">
          <mxGeometry x="756" y="370" width="10" height="20" as="geometry" />
        </mxCell>
        <mxCell id="8xyQKnSqyoeRqNO3VlQX-52" value="" style="rounded=0;whiteSpace=wrap;html=1;fillColor=#e5dc7b;" vertex="1" parent="1">
          <mxGeometry x="766" y="370" width="10" height="20" as="geometry" />
        </mxCell>
        <mxCell id="8xyQKnSqyoeRqNO3VlQX-53" value="" style="rounded=0;whiteSpace=wrap;html=1;fillColor=#e5dc7b;" vertex="1" parent="1">
          <mxGeometry x="776" y="370" width="10" height="20" as="geometry" />
        </mxCell>
        <mxCell id="8xyQKnSqyoeRqNO3VlQX-54" value="" style="rounded=0;whiteSpace=wrap;html=1;fillColor=#e5dc7b;" vertex="1" parent="1">
          <mxGeometry x="786" y="370" width="10" height="20" as="geometry" />
        </mxCell>
        <mxCell id="8xyQKnSqyoeRqNO3VlQX-55" value="" style="rounded=0;whiteSpace=wrap;html=1;fillColor=#e5dc7b;" vertex="1" parent="1">
          <mxGeometry x="796" y="370" width="10" height="20" as="geometry" />
        </mxCell>
        <mxCell id="8xyQKnSqyoeRqNO3VlQX-56" value="" style="rounded=0;whiteSpace=wrap;html=1;fillColor=#e5dc7b;" vertex="1" parent="1">
          <mxGeometry x="806" y="370" width="10" height="20" as="geometry" />
        </mxCell>
        <mxCell id="8xyQKnSqyoeRqNO3VlQX-57" value="" style="rounded=0;whiteSpace=wrap;html=1;fillColor=#e5dc7b;" vertex="1" parent="1">
          <mxGeometry x="816" y="370" width="10" height="20" as="geometry" />
        </mxCell>
        <mxCell id="8xyQKnSqyoeRqNO3VlQX-58" value="" style="rounded=0;whiteSpace=wrap;html=1;fillColor=#e5dc7b;" vertex="1" parent="1">
          <mxGeometry x="826" y="370" width="10" height="20" as="geometry" />
        </mxCell>
        <mxCell id="8xyQKnSqyoeRqNO3VlQX-59" value="" style="rounded=0;whiteSpace=wrap;html=1;fillColor=#e5dc7b;" vertex="1" parent="1">
          <mxGeometry x="836" y="370" width="10" height="20" as="geometry" />
        </mxCell>
        <mxCell id="8xyQKnSqyoeRqNO3VlQX-60" value="" style="rounded=0;whiteSpace=wrap;html=1;fillColor=#e5dc7b;" vertex="1" parent="1">
          <mxGeometry x="846" y="370" width="10" height="20" as="geometry" />
        </mxCell>
        <mxCell id="8xyQKnSqyoeRqNO3VlQX-61" value="" style="rounded=0;whiteSpace=wrap;html=1;fillColor=#e5dc7b;" vertex="1" parent="1">
          <mxGeometry x="856" y="370" width="10" height="20" as="geometry" />
        </mxCell>
        <mxCell id="8xyQKnSqyoeRqNO3VlQX-62" value="" style="rounded=0;whiteSpace=wrap;html=1;fillColor=#e5dc7b;" vertex="1" parent="1">
          <mxGeometry x="866" y="370" width="10" height="20" as="geometry" />
        </mxCell>
        <mxCell id="8xyQKnSqyoeRqNO3VlQX-63" value="" style="rounded=0;whiteSpace=wrap;html=1;fillColor=#e5dc7b;" vertex="1" parent="1">
          <mxGeometry x="876" y="370" width="10" height="20" as="geometry" />
        </mxCell>
        <mxCell id="8xyQKnSqyoeRqNO3VlQX-64" value="" style="rounded=0;whiteSpace=wrap;html=1;fillColor=#e5dc7b;" vertex="1" parent="1">
          <mxGeometry x="886" y="370" width="10" height="20" as="geometry" />
        </mxCell>
        <mxCell id="8xyQKnSqyoeRqNO3VlQX-65" value="" style="rounded=0;whiteSpace=wrap;html=1;fillColor=#e5dc7b;" vertex="1" parent="1">
          <mxGeometry x="896" y="370" width="10" height="20" as="geometry" />
        </mxCell>
        <mxCell id="8xyQKnSqyoeRqNO3VlQX-66" value="" style="rounded=0;whiteSpace=wrap;html=1;fillColor=#e5dc7b;" vertex="1" parent="1">
          <mxGeometry x="906" y="370" width="10" height="20" as="geometry" />
        </mxCell>
        <mxCell id="8xyQKnSqyoeRqNO3VlQX-67" value="" style="rounded=0;whiteSpace=wrap;html=1;fillColor=#e5dc7b;" vertex="1" parent="1">
          <mxGeometry x="916" y="370" width="10" height="20" as="geometry" />
        </mxCell>
        <mxCell id="8xyQKnSqyoeRqNO3VlQX-68" value="" style="rounded=0;whiteSpace=wrap;html=1;fillColor=#e5dc7b;" vertex="1" parent="1">
          <mxGeometry x="926" y="370" width="10" height="20" as="geometry" />
        </mxCell>
        <mxCell id="8xyQKnSqyoeRqNO3VlQX-69" value="" style="rounded=0;whiteSpace=wrap;html=1;fillColor=#e5dc7b;" vertex="1" parent="1">
          <mxGeometry x="936" y="370" width="10" height="20" as="geometry" />
        </mxCell>
        <mxCell id="8xyQKnSqyoeRqNO3VlQX-70" value="" style="rounded=0;whiteSpace=wrap;html=1;fillColor=#e5dc7b;" vertex="1" parent="1">
          <mxGeometry x="946" y="370" width="10" height="20" as="geometry" />
        </mxCell>
        <mxCell id="8xyQKnSqyoeRqNO3VlQX-71" value="" style="rounded=0;whiteSpace=wrap;html=1;fillColor=#e5dc7b;" vertex="1" parent="1">
          <mxGeometry x="956" y="370" width="10" height="20" as="geometry" />
        </mxCell>
        <mxCell id="8xyQKnSqyoeRqNO3VlQX-72" value="" style="rounded=0;whiteSpace=wrap;html=1;fillColor=#e5dc7b;" vertex="1" parent="1">
          <mxGeometry x="966" y="370" width="10" height="20" as="geometry" />
        </mxCell>
        <mxCell id="8xyQKnSqyoeRqNO3VlQX-73" value="" style="rounded=0;whiteSpace=wrap;html=1;fillColor=#e5dc7b;" vertex="1" parent="1">
          <mxGeometry x="976" y="370" width="10" height="20" as="geometry" />
        </mxCell>
        <mxCell id="8xyQKnSqyoeRqNO3VlQX-74" value="" style="rounded=0;whiteSpace=wrap;html=1;fillColor=#e5dc7b;" vertex="1" parent="1">
          <mxGeometry x="986" y="370" width="10" height="20" as="geometry" />
        </mxCell>
        <mxCell id="8xyQKnSqyoeRqNO3VlQX-75" value="" style="rounded=0;whiteSpace=wrap;html=1;fillColor=#e5dc7b;" vertex="1" parent="1">
          <mxGeometry x="996" y="370" width="10" height="20" as="geometry" />
        </mxCell>
        <mxCell id="8xyQKnSqyoeRqNO3VlQX-76" value="" style="rounded=0;whiteSpace=wrap;html=1;fillColor=#e5dc7b;" vertex="1" parent="1">
          <mxGeometry x="1006" y="370" width="10" height="20" as="geometry" />
        </mxCell>
        <mxCell id="8xyQKnSqyoeRqNO3VlQX-77" value="" style="rounded=0;whiteSpace=wrap;html=1;fillColor=#e5dc7b;" vertex="1" parent="1">
          <mxGeometry x="1016" y="370" width="10" height="20" as="geometry" />
        </mxCell>
        <mxCell id="8xyQKnSqyoeRqNO3VlQX-78" value="" style="rounded=0;whiteSpace=wrap;html=1;fillColor=#e5dc7b;" vertex="1" parent="1">
          <mxGeometry x="1026" y="370" width="10" height="20" as="geometry" />
        </mxCell>
        <mxCell id="8xyQKnSqyoeRqNO3VlQX-79" value="" style="rounded=0;whiteSpace=wrap;html=1;fillColor=#e5dc7b;" vertex="1" parent="1">
          <mxGeometry x="1036" y="370" width="10" height="20" as="geometry" />
        </mxCell>
        <mxCell id="8xyQKnSqyoeRqNO3VlQX-80" value="" style="shape=or;whiteSpace=wrap;html=1;direction=north;" vertex="1" parent="1">
          <mxGeometry x="530" y="360" width="20" height="30" as="geometry" />
        </mxCell>
        <mxCell id="8xyQKnSqyoeRqNO3VlQX-81" value="" style="rounded=0;whiteSpace=wrap;html=1;fillColor=#e5dc7b;" vertex="1" parent="1">
          <mxGeometry x="660" y="370" width="10" height="20" as="geometry" />
        </mxCell>
        <mxCell id="8xyQKnSqyoeRqNO3VlQX-82" value="" style="rounded=0;whiteSpace=wrap;html=1;fillColor=#e5dc7b;" vertex="1" parent="1">
          <mxGeometry x="670" y="370" width="10" height="20" as="geometry" />
        </mxCell>
        <mxCell id="8xyQKnSqyoeRqNO3VlQX-83" value="" style="rounded=0;whiteSpace=wrap;html=1;fillColor=#e5dc7b;" vertex="1" parent="1">
          <mxGeometry x="680" y="370" width="10" height="20" as="geometry" />
        </mxCell>
        <mxCell id="8xyQKnSqyoeRqNO3VlQX-84" value="" style="rounded=0;whiteSpace=wrap;html=1;fillColor=#e5dc7b;" vertex="1" parent="1">
          <mxGeometry x="430" y="370" width="10" height="20" as="geometry" />
        </mxCell>
        <mxCell id="8xyQKnSqyoeRqNO3VlQX-345" style="edgeStyle=orthogonalEdgeStyle;rounded=0;orthogonalLoop=1;jettySize=auto;html=1;exitX=0.25;exitY=1;exitDx=0;exitDy=0;entryX=1;entryY=0.5;entryDx=0;entryDy=0;strokeWidth=2;strokeColor=#6c8ebf;endArrow=none;endFill=0;fillColor=#dae8fc;" edge="1" parent="1" source="8xyQKnSqyoeRqNO3VlQX-86" target="8xyQKnSqyoeRqNO3VlQX-106">
          <mxGeometry relative="1" as="geometry">
            <Array as="points">
              <mxPoint x="400" y="213" />
              <mxPoint x="400" y="198" />
            </Array>
          </mxGeometry>
        </mxCell>
        <mxCell id="8xyQKnSqyoeRqNO3VlQX-346" style="edgeStyle=orthogonalEdgeStyle;rounded=0;orthogonalLoop=1;jettySize=auto;html=1;exitX=0.75;exitY=1;exitDx=0;exitDy=0;strokeWidth=2;strokeColor=#6c8ebf;endArrow=none;endFill=0;fillColor=#dae8fc;" edge="1" parent="1" source="8xyQKnSqyoeRqNO3VlQX-86" target="8xyQKnSqyoeRqNO3VlQX-96">
          <mxGeometry relative="1" as="geometry">
            <Array as="points">
              <mxPoint x="400" y="277" />
              <mxPoint x="400" y="290" />
            </Array>
          </mxGeometry>
        </mxCell>
        <mxCell id="8xyQKnSqyoeRqNO3VlQX-350" style="edgeStyle=orthogonalEdgeStyle;rounded=0;orthogonalLoop=1;jettySize=auto;html=1;exitX=0.25;exitY=0;exitDx=0;exitDy=0;strokeWidth=2;strokeColor=#82b366;endArrow=none;endFill=0;fillColor=#d5e8d4;" edge="1" parent="1" source="8xyQKnSqyoeRqNO3VlQX-86" target="8xyQKnSqyoeRqNO3VlQX-115">
          <mxGeometry relative="1" as="geometry">
            <Array as="points">
              <mxPoint x="680" y="213" />
              <mxPoint x="680" y="198" />
            </Array>
          </mxGeometry>
        </mxCell>
        <mxCell id="8xyQKnSqyoeRqNO3VlQX-86" value="&lt;font style=&quot;font-size: 14px;&quot; color=&quot;#ababab&quot;&gt;&lt;b&gt;RCD&lt;/b&gt;&lt;/font&gt;" style="rounded=0;whiteSpace=wrap;html=1;strokeColor=#454744;fillColor=#464646;direction=south;" vertex="1" parent="1">
          <mxGeometry x="440" y="180" width="200" height="130" as="geometry" />
        </mxCell>
        <mxCell id="8xyQKnSqyoeRqNO3VlQX-94" value="" style="endArrow=classic;html=1;rounded=0;strokeWidth=4;fillColor=#ffe6cc;strokeColor=#d79b00;" edge="1" parent="1">
          <mxGeometry width="50" height="50" relative="1" as="geometry">
            <mxPoint x="474.66" y="440" as="sourcePoint" />
            <mxPoint x="474.66" y="310" as="targetPoint" />
          </mxGeometry>
        </mxCell>
        <mxCell id="8xyQKnSqyoeRqNO3VlQX-95" value="" style="endArrow=classic;html=1;rounded=0;strokeWidth=4;fillColor=#dae8fc;strokeColor=#6c8ebf;" edge="1" parent="1">
          <mxGeometry width="50" height="50" relative="1" as="geometry">
            <mxPoint x="552" y="440" as="sourcePoint" />
            <mxPoint x="552" y="310" as="targetPoint" />
          </mxGeometry>
        </mxCell>
        <mxCell id="8xyQKnSqyoeRqNO3VlQX-96" value="&lt;font style=&quot;font-size: 14px;&quot; color=&quot;#ababab&quot;&gt;DQ&lt;/font&gt;&lt;div style=&quot;font-size: 14px;&quot;&gt;&lt;font color=&quot;#ababab&quot;&gt;x4&lt;/font&gt;&lt;/div&gt;" style="rounded=0;whiteSpace=wrap;html=1;strokeColor=#454744;fillColor=#464646;" vertex="1" parent="1">
          <mxGeometry x="-60" y="250" width="60" height="80" as="geometry" />
        </mxCell>
        <mxCell id="8xyQKnSqyoeRqNO3VlQX-97" value="&lt;font style=&quot;font-size: 14px;&quot; color=&quot;#ababab&quot;&gt;DQ&lt;/font&gt;&lt;div style=&quot;font-size: 14px;&quot;&gt;&lt;font color=&quot;#ababab&quot;&gt;x4&lt;/font&gt;&lt;/div&gt;" style="rounded=0;whiteSpace=wrap;html=1;strokeColor=#454744;fillColor=#464646;" vertex="1" parent="1">
          <mxGeometry x="20" y="250" width="60" height="80" as="geometry" />
        </mxCell>
        <mxCell id="8xyQKnSqyoeRqNO3VlQX-98" value="&lt;font style=&quot;font-size: 14px;&quot; color=&quot;#ababab&quot;&gt;DQ&lt;/font&gt;&lt;div style=&quot;font-size: 14px;&quot;&gt;&lt;font color=&quot;#ababab&quot;&gt;x4&lt;/font&gt;&lt;/div&gt;" style="rounded=0;whiteSpace=wrap;html=1;strokeColor=#454744;fillColor=#464646;" vertex="1" parent="1">
          <mxGeometry x="100" y="250" width="60" height="80" as="geometry" />
        </mxCell>
        <mxCell id="8xyQKnSqyoeRqNO3VlQX-99" value="&lt;font style=&quot;font-size: 14px;&quot; color=&quot;#ababab&quot;&gt;DQ&lt;/font&gt;&lt;div style=&quot;font-size: 14px;&quot;&gt;&lt;font color=&quot;#ababab&quot;&gt;x4&lt;/font&gt;&lt;/div&gt;" style="rounded=0;whiteSpace=wrap;html=1;strokeColor=#454744;fillColor=#464646;" vertex="1" parent="1">
          <mxGeometry x="180" y="250" width="60" height="80" as="geometry" />
        </mxCell>
        <mxCell id="8xyQKnSqyoeRqNO3VlQX-100" value="&lt;font style=&quot;font-size: 14px;&quot; color=&quot;#ababab&quot;&gt;ECC&lt;/font&gt;&lt;div style=&quot;font-size: 14px;&quot;&gt;&lt;font color=&quot;#ababab&quot;&gt;x4&lt;/font&gt;&lt;/div&gt;" style="rounded=0;whiteSpace=wrap;html=1;strokeColor=#454744;fillColor=#464646;" vertex="1" parent="1">
          <mxGeometry x="260" y="250" width="60" height="80" as="geometry" />
        </mxCell>
        <mxCell id="8xyQKnSqyoeRqNO3VlQX-106" value="&lt;font color=&quot;#ababab&quot; style=&quot;font-size: 14px;&quot;&gt;DQ&lt;/font&gt;&lt;div style=&quot;font-size: 14px;&quot;&gt;&lt;font color=&quot;#ababab&quot; style=&quot;font-size: 14px;&quot;&gt;x4&lt;/font&gt;&lt;/div&gt;" style="rounded=0;whiteSpace=wrap;html=1;strokeColor=#454744;fillColor=#464646;" vertex="1" parent="1">
          <mxGeometry x="-60" y="158" width="60" height="80" as="geometry" />
        </mxCell>
        <mxCell id="8xyQKnSqyoeRqNO3VlQX-107" value="&lt;font style=&quot;font-size: 14px;&quot; color=&quot;#ababab&quot;&gt;DQ&lt;/font&gt;&lt;div style=&quot;font-size: 14px;&quot;&gt;&lt;font color=&quot;#ababab&quot;&gt;x4&lt;/font&gt;&lt;/div&gt;" style="rounded=0;whiteSpace=wrap;html=1;strokeColor=#454744;fillColor=#464646;" vertex="1" parent="1">
          <mxGeometry x="20" y="158" width="60" height="80" as="geometry" />
        </mxCell>
        <mxCell id="8xyQKnSqyoeRqNO3VlQX-108" value="&lt;font style=&quot;font-size: 14px;&quot; color=&quot;#ababab&quot;&gt;DQ&lt;/font&gt;&lt;div style=&quot;font-size: 14px;&quot;&gt;&lt;font color=&quot;#ababab&quot;&gt;x4&lt;/font&gt;&lt;/div&gt;" style="rounded=0;whiteSpace=wrap;html=1;strokeColor=#454744;fillColor=#464646;" vertex="1" parent="1">
          <mxGeometry x="100" y="158" width="60" height="80" as="geometry" />
        </mxCell>
        <mxCell id="8xyQKnSqyoeRqNO3VlQX-109" value="&lt;font style=&quot;font-size: 14px;&quot; color=&quot;#ababab&quot;&gt;DQ&lt;/font&gt;&lt;div style=&quot;font-size: 14px;&quot;&gt;&lt;font color=&quot;#ababab&quot;&gt;x4&lt;/font&gt;&lt;/div&gt;" style="rounded=0;whiteSpace=wrap;html=1;strokeColor=#454744;fillColor=#464646;" vertex="1" parent="1">
          <mxGeometry x="180" y="158" width="60" height="80" as="geometry" />
        </mxCell>
        <mxCell id="8xyQKnSqyoeRqNO3VlQX-110" value="&lt;font style=&quot;font-size: 14px;&quot; color=&quot;#ababab&quot;&gt;ECC&lt;/font&gt;&lt;div style=&quot;font-size: 14px;&quot;&gt;&lt;font color=&quot;#ababab&quot;&gt;x4&lt;/font&gt;&lt;/div&gt;" style="rounded=0;whiteSpace=wrap;html=1;strokeColor=#454744;fillColor=#464646;" vertex="1" parent="1">
          <mxGeometry x="260" y="158" width="60" height="80" as="geometry" />
        </mxCell>
        <mxCell id="8xyQKnSqyoeRqNO3VlQX-111" value="&lt;font style=&quot;font-size: 14px;&quot; color=&quot;#ababab&quot;&gt;ECC&lt;/font&gt;&lt;div style=&quot;font-size: 14px;&quot;&gt;&lt;font color=&quot;#ababab&quot;&gt;x4&lt;/font&gt;&lt;/div&gt;" style="rounded=0;whiteSpace=wrap;html=1;strokeColor=#454744;fillColor=#464646;" vertex="1" parent="1">
          <mxGeometry x="761" y="158" width="60" height="80" as="geometry" />
        </mxCell>
        <mxCell id="8xyQKnSqyoeRqNO3VlQX-112" value="&lt;font style=&quot;font-size: 14px;&quot; color=&quot;#ababab&quot;&gt;DQ&lt;/font&gt;&lt;div style=&quot;font-size: 14px;&quot;&gt;&lt;font color=&quot;#ababab&quot;&gt;x4&lt;/font&gt;&lt;/div&gt;" style="rounded=0;whiteSpace=wrap;html=1;strokeColor=#454744;fillColor=#464646;" vertex="1" parent="1">
          <mxGeometry x="841" y="158" width="60" height="80" as="geometry" />
        </mxCell>
        <mxCell id="8xyQKnSqyoeRqNO3VlQX-113" value="&lt;font style=&quot;font-size: 14px;&quot; color=&quot;#ababab&quot;&gt;DQ&lt;/font&gt;&lt;div style=&quot;font-size: 14px;&quot;&gt;&lt;font color=&quot;#ababab&quot;&gt;x4&lt;/font&gt;&lt;/div&gt;" style="rounded=0;whiteSpace=wrap;html=1;strokeColor=#454744;fillColor=#464646;" vertex="1" parent="1">
          <mxGeometry x="921" y="158" width="60" height="80" as="geometry" />
        </mxCell>
        <mxCell id="8xyQKnSqyoeRqNO3VlQX-114" value="&lt;font style=&quot;font-size: 14px;&quot; color=&quot;#ababab&quot;&gt;DQ&lt;/font&gt;&lt;div style=&quot;font-size: 14px;&quot;&gt;&lt;font color=&quot;#ababab&quot;&gt;x4&lt;/font&gt;&lt;/div&gt;" style="rounded=0;whiteSpace=wrap;html=1;strokeColor=#454744;fillColor=#464646;" vertex="1" parent="1">
          <mxGeometry x="1001" y="158" width="60" height="80" as="geometry" />
        </mxCell>
        <mxCell id="8xyQKnSqyoeRqNO3VlQX-115" value="&lt;font style=&quot;font-size: 14px;&quot; color=&quot;#ababab&quot;&gt;DQ&lt;/font&gt;&lt;div style=&quot;font-size: 14px;&quot;&gt;&lt;font color=&quot;#ababab&quot;&gt;x4&lt;/font&gt;&lt;/div&gt;" style="rounded=0;whiteSpace=wrap;html=1;strokeColor=#454744;fillColor=#464646;" vertex="1" parent="1">
          <mxGeometry x="1081" y="158" width="60" height="80" as="geometry" />
        </mxCell>
        <mxCell id="8xyQKnSqyoeRqNO3VlQX-116" value="DCK" style="text;html=1;align=center;verticalAlign=middle;whiteSpace=wrap;rounded=0;fontColor=#d79b00;fontStyle=1;fontSize=14;" vertex="1" parent="1">
          <mxGeometry x="460" y="440" width="35" height="20" as="geometry" />
        </mxCell>
        <mxCell id="8xyQKnSqyoeRqNO3VlQX-117" value="" style="endArrow=classic;html=1;rounded=0;exitX=1;exitY=1;exitDx=0;exitDy=0;strokeWidth=4;fillColor=#f8cecc;strokeColor=#b85450;" edge="1" parent="1">
          <mxGeometry width="50" height="50" relative="1" as="geometry">
            <mxPoint x="577" y="470" as="sourcePoint" />
            <mxPoint x="577" y="310" as="targetPoint" />
          </mxGeometry>
        </mxCell>
        <mxCell id="8xyQKnSqyoeRqNO3VlQX-118" value="" style="endArrow=classic;html=1;rounded=0;strokeWidth=4;fillColor=#d5e8d4;strokeColor=#82b366;" edge="1" parent="1">
          <mxGeometry width="50" height="50" relative="1" as="geometry">
            <mxPoint x="601" y="500" as="sourcePoint" />
            <mxPoint x="601.31" y="310" as="targetPoint" />
          </mxGeometry>
        </mxCell>
        <mxCell id="8xyQKnSqyoeRqNO3VlQX-119" value="" style="endArrow=classic;html=1;rounded=0;strokeWidth=4;fillColor=#e1d5e7;strokeColor=#9673a6;" edge="1" parent="1">
          <mxGeometry width="50" height="50" relative="1" as="geometry">
            <mxPoint x="625" y="540" as="sourcePoint" />
            <mxPoint x="625.31" y="310" as="targetPoint" />
          </mxGeometry>
        </mxCell>
        <mxCell id="8xyQKnSqyoeRqNO3VlQX-122" value="&lt;div&gt;&lt;span style=&quot;background-color: initial;&quot;&gt;DCS1_B_n&lt;/span&gt;&lt;br&gt;&lt;/div&gt;" style="text;html=1;align=center;verticalAlign=middle;whiteSpace=wrap;rounded=0;fontColor=#9673a6;fontStyle=1;fontSize=14;" vertex="1" parent="1">
          <mxGeometry x="566" y="540" width="90" height="20" as="geometry" />
        </mxCell>
        <mxCell id="8xyQKnSqyoeRqNO3VlQX-128" value="RCD and RDIMM shown enlarged for ease of explaining" style="text;html=1;align=center;verticalAlign=middle;whiteSpace=wrap;rounded=0;" vertex="1" parent="1">
          <mxGeometry x="840" y="100" width="320" height="30" as="geometry" />
        </mxCell>
        <mxCell id="8xyQKnSqyoeRqNO3VlQX-312" value="" style="rounded=0;whiteSpace=wrap;html=1;fillColor=#e5dc7b;" vertex="1" parent="1">
          <mxGeometry x="-70" y="370" width="10" height="20" as="geometry" />
        </mxCell>
        <mxCell id="8xyQKnSqyoeRqNO3VlQX-313" value="" style="rounded=0;whiteSpace=wrap;html=1;fillColor=#e5dc7b;" vertex="1" parent="1">
          <mxGeometry x="-60" y="370" width="10" height="20" as="geometry" />
        </mxCell>
        <mxCell id="8xyQKnSqyoeRqNO3VlQX-314" value="" style="rounded=0;whiteSpace=wrap;html=1;fillColor=#e5dc7b;" vertex="1" parent="1">
          <mxGeometry x="-50" y="370" width="10" height="20" as="geometry" />
        </mxCell>
        <mxCell id="8xyQKnSqyoeRqNO3VlQX-315" value="" style="rounded=0;whiteSpace=wrap;html=1;fillColor=#e5dc7b;" vertex="1" parent="1">
          <mxGeometry x="-40" y="370" width="10" height="20" as="geometry" />
        </mxCell>
        <mxCell id="8xyQKnSqyoeRqNO3VlQX-316" value="" style="rounded=0;whiteSpace=wrap;html=1;fillColor=#e5dc7b;" vertex="1" parent="1">
          <mxGeometry x="-30" y="370" width="10" height="20" as="geometry" />
        </mxCell>
        <mxCell id="8xyQKnSqyoeRqNO3VlQX-317" value="" style="rounded=0;whiteSpace=wrap;html=1;fillColor=#e5dc7b;" vertex="1" parent="1">
          <mxGeometry x="-20" y="370" width="10" height="20" as="geometry" />
        </mxCell>
        <mxCell id="8xyQKnSqyoeRqNO3VlQX-318" value="" style="rounded=0;whiteSpace=wrap;html=1;fillColor=#e5dc7b;" vertex="1" parent="1">
          <mxGeometry x="-10" y="370" width="10" height="20" as="geometry" />
        </mxCell>
        <mxCell id="8xyQKnSqyoeRqNO3VlQX-319" value="" style="rounded=0;whiteSpace=wrap;html=1;fillColor=#e5dc7b;" vertex="1" parent="1">
          <mxGeometry y="370" width="10" height="20" as="geometry" />
        </mxCell>
        <mxCell id="8xyQKnSqyoeRqNO3VlQX-320" value="" style="rounded=0;whiteSpace=wrap;html=1;fillColor=#e5dc7b;" vertex="1" parent="1">
          <mxGeometry x="10" y="370" width="10" height="20" as="geometry" />
        </mxCell>
        <mxCell id="8xyQKnSqyoeRqNO3VlQX-321" value="" style="rounded=0;whiteSpace=wrap;html=1;fillColor=#e5dc7b;" vertex="1" parent="1">
          <mxGeometry x="20" y="370" width="10" height="20" as="geometry" />
        </mxCell>
        <mxCell id="8xyQKnSqyoeRqNO3VlQX-322" value="" style="rounded=0;whiteSpace=wrap;html=1;fillColor=#e5dc7b;" vertex="1" parent="1">
          <mxGeometry x="30" y="370" width="10" height="20" as="geometry" />
        </mxCell>
        <mxCell id="8xyQKnSqyoeRqNO3VlQX-323" value="" style="rounded=0;whiteSpace=wrap;html=1;fillColor=#e5dc7b;" vertex="1" parent="1">
          <mxGeometry x="40" y="370" width="10" height="20" as="geometry" />
        </mxCell>
        <mxCell id="8xyQKnSqyoeRqNO3VlQX-324" value="" style="rounded=0;whiteSpace=wrap;html=1;fillColor=#e5dc7b;" vertex="1" parent="1">
          <mxGeometry x="1046" y="370" width="10" height="20" as="geometry" />
        </mxCell>
        <mxCell id="8xyQKnSqyoeRqNO3VlQX-325" value="" style="rounded=0;whiteSpace=wrap;html=1;fillColor=#e5dc7b;" vertex="1" parent="1">
          <mxGeometry x="1056" y="370" width="10" height="20" as="geometry" />
        </mxCell>
        <mxCell id="8xyQKnSqyoeRqNO3VlQX-326" value="" style="rounded=0;whiteSpace=wrap;html=1;fillColor=#e5dc7b;" vertex="1" parent="1">
          <mxGeometry x="1066" y="370" width="10" height="20" as="geometry" />
        </mxCell>
        <mxCell id="8xyQKnSqyoeRqNO3VlQX-327" value="" style="rounded=0;whiteSpace=wrap;html=1;fillColor=#e5dc7b;" vertex="1" parent="1">
          <mxGeometry x="1076" y="370" width="10" height="20" as="geometry" />
        </mxCell>
        <mxCell id="8xyQKnSqyoeRqNO3VlQX-328" value="" style="rounded=0;whiteSpace=wrap;html=1;fillColor=#e5dc7b;" vertex="1" parent="1">
          <mxGeometry x="1086" y="370" width="10" height="20" as="geometry" />
        </mxCell>
        <mxCell id="8xyQKnSqyoeRqNO3VlQX-329" value="" style="rounded=0;whiteSpace=wrap;html=1;fillColor=#e5dc7b;" vertex="1" parent="1">
          <mxGeometry x="1096" y="370" width="10" height="20" as="geometry" />
        </mxCell>
        <mxCell id="8xyQKnSqyoeRqNO3VlQX-330" value="" style="rounded=0;whiteSpace=wrap;html=1;fillColor=#e5dc7b;" vertex="1" parent="1">
          <mxGeometry x="1106" y="370" width="10" height="20" as="geometry" />
        </mxCell>
        <mxCell id="8xyQKnSqyoeRqNO3VlQX-331" value="" style="rounded=0;whiteSpace=wrap;html=1;fillColor=#e5dc7b;" vertex="1" parent="1">
          <mxGeometry x="1116" y="370" width="10" height="20" as="geometry" />
        </mxCell>
        <mxCell id="8xyQKnSqyoeRqNO3VlQX-332" value="" style="rounded=0;whiteSpace=wrap;html=1;fillColor=#e5dc7b;" vertex="1" parent="1">
          <mxGeometry x="1126" y="370" width="10" height="20" as="geometry" />
        </mxCell>
        <mxCell id="8xyQKnSqyoeRqNO3VlQX-333" value="" style="rounded=0;whiteSpace=wrap;html=1;fillColor=#e5dc7b;" vertex="1" parent="1">
          <mxGeometry x="1136" y="370" width="10" height="20" as="geometry" />
        </mxCell>
        <mxCell id="8xyQKnSqyoeRqNO3VlQX-347" value="&lt;span style=&quot;font-family: Helvetica; font-size: 14px; font-style: normal; font-variant-ligatures: normal; font-variant-caps: normal; font-weight: 700; letter-spacing: normal; orphans: 2; text-align: center; text-indent: 0px; text-transform: none; widows: 2; word-spacing: 0px; -webkit-text-stroke-width: 0px; white-space: normal; background-color: rgb(251, 251, 251); text-decoration-thickness: initial; text-decoration-style: initial; text-decoration-color: initial; float: none; display: inline !important;&quot;&gt;DCS0_A_n&lt;/span&gt;" style="text;whiteSpace=wrap;html=1;fontColor=#6c8ebf;" vertex="1" parent="1">
          <mxGeometry x="497" y="440" width="80" height="30" as="geometry" />
        </mxCell>
        <mxCell id="8xyQKnSqyoeRqNO3VlQX-348" value="&lt;span style=&quot;color: rgb(184, 84, 80); font-family: Helvetica; font-size: 14px; font-style: normal; font-variant-ligatures: normal; font-variant-caps: normal; font-weight: 700; letter-spacing: normal; orphans: 2; text-align: center; text-indent: 0px; text-transform: none; widows: 2; word-spacing: 0px; -webkit-text-stroke-width: 0px; white-space: normal; background-color: rgb(251, 251, 251); text-decoration-thickness: initial; text-decoration-style: initial; text-decoration-color: initial; display: inline !important; float: none;&quot;&gt;DCS1_A_n&lt;/span&gt;" style="text;whiteSpace=wrap;html=1;" vertex="1" parent="1">
          <mxGeometry x="522" y="470" width="80" height="20" as="geometry" />
        </mxCell>
        <mxCell id="8xyQKnSqyoeRqNO3VlQX-349" value="&lt;span style=&quot;font-family: Helvetica; font-size: 14px; font-style: normal; font-variant-ligatures: normal; font-variant-caps: normal; font-weight: 700; letter-spacing: normal; orphans: 2; text-align: center; text-indent: 0px; text-transform: none; widows: 2; word-spacing: 0px; -webkit-text-stroke-width: 0px; white-space: normal; background-color: rgb(251, 251, 251); text-decoration-thickness: initial; text-decoration-style: initial; text-decoration-color: initial; float: none; display: inline !important;&quot;&gt;DCS0_B_n&lt;/span&gt;" style="text;whiteSpace=wrap;html=1;fontColor=#82b366;" vertex="1" parent="1">
          <mxGeometry x="546" y="500" width="80" height="30" as="geometry" />
        </mxCell>
        <mxCell id="8xyQKnSqyoeRqNO3VlQX-351" style="edgeStyle=orthogonalEdgeStyle;rounded=0;orthogonalLoop=1;jettySize=auto;html=1;exitX=0.25;exitY=0;exitDx=0;exitDy=0;strokeWidth=2;strokeColor=#82b366;endArrow=none;endFill=0;entryX=0;entryY=0.5;entryDx=0;entryDy=0;fillColor=#d5e8d4;" edge="1" parent="1" target="8xyQKnSqyoeRqNO3VlQX-105">
          <mxGeometry relative="1" as="geometry">
            <mxPoint x="640" y="277" as="sourcePoint" />
            <mxPoint x="1081" y="262" as="targetPoint" />
            <Array as="points">
              <mxPoint x="680" y="277" />
              <mxPoint x="680" y="290" />
            </Array>
          </mxGeometry>
        </mxCell>
        <mxCell id="8xyQKnSqyoeRqNO3VlQX-101" value="&lt;font style=&quot;font-size: 14px;&quot; color=&quot;#ababab&quot;&gt;ECC&lt;/font&gt;&lt;div style=&quot;font-size: 14px;&quot;&gt;&lt;font color=&quot;#ababab&quot;&gt;x4&lt;/font&gt;&lt;/div&gt;" style="rounded=0;whiteSpace=wrap;html=1;strokeColor=#454744;fillColor=#464646;" vertex="1" parent="1">
          <mxGeometry x="761" y="250" width="60" height="80" as="geometry" />
        </mxCell>
        <mxCell id="8xyQKnSqyoeRqNO3VlQX-102" value="&lt;font style=&quot;font-size: 14px;&quot; color=&quot;#ababab&quot;&gt;DQ&lt;/font&gt;&lt;div style=&quot;font-size: 14px;&quot;&gt;&lt;font color=&quot;#ababab&quot;&gt;x4&lt;/font&gt;&lt;/div&gt;" style="rounded=0;whiteSpace=wrap;html=1;strokeColor=#454744;fillColor=#464646;" vertex="1" parent="1">
          <mxGeometry x="841" y="250" width="60" height="80" as="geometry" />
        </mxCell>
        <mxCell id="8xyQKnSqyoeRqNO3VlQX-103" value="&lt;font style=&quot;font-size: 14px;&quot; color=&quot;#ababab&quot;&gt;DQ&lt;/font&gt;&lt;div style=&quot;font-size: 14px;&quot;&gt;&lt;font color=&quot;#ababab&quot;&gt;x4&lt;/font&gt;&lt;/div&gt;" style="rounded=0;whiteSpace=wrap;html=1;strokeColor=#454744;fillColor=#464646;" vertex="1" parent="1">
          <mxGeometry x="921" y="250" width="60" height="80" as="geometry" />
        </mxCell>
        <mxCell id="8xyQKnSqyoeRqNO3VlQX-104" value="&lt;font style=&quot;font-size: 14px;&quot; color=&quot;#ababab&quot;&gt;DQ&lt;/font&gt;&lt;div style=&quot;font-size: 14px;&quot;&gt;&lt;font color=&quot;#ababab&quot;&gt;x4&lt;/font&gt;&lt;/div&gt;" style="rounded=0;whiteSpace=wrap;html=1;strokeColor=#454744;fillColor=#464646;" vertex="1" parent="1">
          <mxGeometry x="1001" y="250" width="60" height="80" as="geometry" />
        </mxCell>
        <mxCell id="8xyQKnSqyoeRqNO3VlQX-105" value="&lt;font style=&quot;font-size: 14px;&quot; color=&quot;#ababab&quot;&gt;DQ&lt;/font&gt;&lt;div style=&quot;font-size: 14px;&quot;&gt;&lt;font color=&quot;#ababab&quot;&gt;x4&lt;/font&gt;&lt;/div&gt;" style="rounded=0;whiteSpace=wrap;html=1;strokeColor=#454744;fillColor=#464646;" vertex="1" parent="1">
          <mxGeometry x="1081" y="250" width="60" height="80" as="geometry" />
        </mxCell>
        <mxCell id="8xyQKnSqyoeRqNO3VlQX-352" value="QACS0_A" style="text;html=1;align=center;verticalAlign=middle;whiteSpace=wrap;rounded=0;fontColor=#6c8ebf;" vertex="1" parent="1">
          <mxGeometry x="330" y="290" width="60" height="30" as="geometry" />
        </mxCell>
        <mxCell id="8xyQKnSqyoeRqNO3VlQX-353" value="QBCS0_A" style="text;html=1;align=center;verticalAlign=middle;whiteSpace=wrap;rounded=0;fontColor=#6c8ebf;" vertex="1" parent="1">
          <mxGeometry x="330" y="170" width="60" height="30" as="geometry" />
        </mxCell>
        <mxCell id="8xyQKnSqyoeRqNO3VlQX-354" value="QACS0_B" style="text;html=1;align=center;verticalAlign=middle;whiteSpace=wrap;rounded=0;fontColor=#82b366;" vertex="1" parent="1">
          <mxGeometry x="690" y="290" width="60" height="30" as="geometry" />
        </mxCell>
        <mxCell id="8xyQKnSqyoeRqNO3VlQX-355" value="QBCS0_B" style="text;html=1;align=center;verticalAlign=middle;whiteSpace=wrap;rounded=0;fontColor=#82b366;" vertex="1" parent="1">
          <mxGeometry x="691" y="170" width="60" height="30" as="geometry" />
        </mxCell>
        <mxCell id="8xyQKnSqyoeRqNO3VlQX-356" value="" style="endArrow=none;html=1;rounded=0;exitX=0.387;exitY=0.385;exitDx=0;exitDy=0;exitPerimeter=0;strokeWidth=2;strokeColor=#b85450;" edge="1" parent="1">
          <mxGeometry width="50" height="50" relative="1" as="geometry">
            <mxPoint x="400.0000000000001" y="230.10000000000014" as="sourcePoint" />
            <mxPoint x="440.12" y="230" as="targetPoint" />
          </mxGeometry>
        </mxCell>
        <mxCell id="8xyQKnSqyoeRqNO3VlQX-357" value="" style="endArrow=none;html=1;rounded=0;exitX=0.387;exitY=0.385;exitDx=0;exitDy=0;exitPerimeter=0;strokeWidth=2;strokeColor=#b85450;" edge="1" parent="1">
          <mxGeometry width="50" height="50" relative="1" as="geometry">
            <mxPoint x="400.0000000000001" y="259.41000000000014" as="sourcePoint" />
            <mxPoint x="440.12" y="259.31" as="targetPoint" />
          </mxGeometry>
        </mxCell>
        <mxCell id="8xyQKnSqyoeRqNO3VlQX-358" value="QACS1_A" style="text;html=1;align=center;verticalAlign=middle;whiteSpace=wrap;rounded=0;fontColor=#b85450;fontStyle=0" vertex="1" parent="1">
          <mxGeometry x="340" y="245" width="60" height="30" as="geometry" />
        </mxCell>
        <mxCell id="8xyQKnSqyoeRqNO3VlQX-359" value="QBCS1_A" style="text;html=1;align=center;verticalAlign=middle;whiteSpace=wrap;rounded=0;fontColor=#b85450;fontStyle=0" vertex="1" parent="1">
          <mxGeometry x="340" y="215" width="60" height="30" as="geometry" />
        </mxCell>
        <mxCell id="8xyQKnSqyoeRqNO3VlQX-360" value="" style="endArrow=none;html=1;rounded=0;exitX=0.387;exitY=0.385;exitDx=0;exitDy=0;exitPerimeter=0;strokeWidth=2;strokeColor=#9673a6;fillColor=#e1d5e7;" edge="1" parent="1">
          <mxGeometry width="50" height="50" relative="1" as="geometry">
            <mxPoint x="640.0000000000001" y="230.10000000000014" as="sourcePoint" />
            <mxPoint x="680.12" y="230" as="targetPoint" />
          </mxGeometry>
        </mxCell>
        <mxCell id="8xyQKnSqyoeRqNO3VlQX-361" value="" style="endArrow=none;html=1;rounded=0;exitX=0.387;exitY=0.385;exitDx=0;exitDy=0;exitPerimeter=0;strokeWidth=2;strokeColor=#9673a6;fillColor=#e1d5e7;" edge="1" parent="1">
          <mxGeometry width="50" height="50" relative="1" as="geometry">
            <mxPoint x="640.0000000000001" y="259.41000000000014" as="sourcePoint" />
            <mxPoint x="680.12" y="259.31" as="targetPoint" />
          </mxGeometry>
        </mxCell>
        <mxCell id="8xyQKnSqyoeRqNO3VlQX-362" value="QACS1_B" style="text;html=1;align=center;verticalAlign=middle;whiteSpace=wrap;rounded=0;fontColor=#9673a6;fontStyle=0" vertex="1" parent="1">
          <mxGeometry x="680" y="245" width="60" height="30" as="geometry" />
        </mxCell>
        <mxCell id="8xyQKnSqyoeRqNO3VlQX-363" value="QBCS1_B" style="text;html=1;align=center;verticalAlign=middle;whiteSpace=wrap;rounded=0;fontColor=#9673a6;fontStyle=0" vertex="1" parent="1">
          <mxGeometry x="680" y="215" width="60" height="30" as="geometry" />
        </mxCell>
        <mxCell id="8xyQKnSqyoeRqNO3VlQX-365" value="" style="rounded=0;whiteSpace=wrap;html=1;fillColor=#2e7956;" vertex="1" parent="1">
          <mxGeometry x="-80" y="620" width="1240" height="260" as="geometry" />
        </mxCell>
        <mxCell id="8xyQKnSqyoeRqNO3VlQX-366" value="" style="rounded=0;whiteSpace=wrap;html=1;fillColor=#e5dc7b;" vertex="1" parent="1">
          <mxGeometry x="52" y="620" width="10" height="20" as="geometry" />
        </mxCell>
        <mxCell id="8xyQKnSqyoeRqNO3VlQX-367" value="" style="rounded=0;whiteSpace=wrap;html=1;fillColor=#e5dc7b;" vertex="1" parent="1">
          <mxGeometry x="62" y="620" width="10" height="20" as="geometry" />
        </mxCell>
        <mxCell id="8xyQKnSqyoeRqNO3VlQX-368" value="" style="rounded=0;whiteSpace=wrap;html=1;fillColor=#e5dc7b;" vertex="1" parent="1">
          <mxGeometry x="72" y="620" width="10" height="20" as="geometry" />
        </mxCell>
        <mxCell id="8xyQKnSqyoeRqNO3VlQX-369" value="" style="rounded=0;whiteSpace=wrap;html=1;fillColor=#e5dc7b;" vertex="1" parent="1">
          <mxGeometry x="82" y="620" width="10" height="20" as="geometry" />
        </mxCell>
        <mxCell id="8xyQKnSqyoeRqNO3VlQX-370" value="" style="rounded=0;whiteSpace=wrap;html=1;fillColor=#e5dc7b;" vertex="1" parent="1">
          <mxGeometry x="92" y="620" width="10" height="20" as="geometry" />
        </mxCell>
        <mxCell id="8xyQKnSqyoeRqNO3VlQX-371" value="" style="rounded=0;whiteSpace=wrap;html=1;fillColor=#e5dc7b;" vertex="1" parent="1">
          <mxGeometry x="102" y="620" width="10" height="20" as="geometry" />
        </mxCell>
        <mxCell id="8xyQKnSqyoeRqNO3VlQX-372" value="" style="rounded=0;whiteSpace=wrap;html=1;fillColor=#e5dc7b;" vertex="1" parent="1">
          <mxGeometry x="112" y="620" width="10" height="20" as="geometry" />
        </mxCell>
        <mxCell id="8xyQKnSqyoeRqNO3VlQX-373" value="" style="rounded=0;whiteSpace=wrap;html=1;fillColor=#e5dc7b;" vertex="1" parent="1">
          <mxGeometry x="122" y="620" width="10" height="20" as="geometry" />
        </mxCell>
        <mxCell id="8xyQKnSqyoeRqNO3VlQX-374" value="" style="rounded=0;whiteSpace=wrap;html=1;fillColor=#e5dc7b;" vertex="1" parent="1">
          <mxGeometry x="132" y="620" width="10" height="20" as="geometry" />
        </mxCell>
        <mxCell id="8xyQKnSqyoeRqNO3VlQX-375" value="" style="rounded=0;whiteSpace=wrap;html=1;fillColor=#e5dc7b;" vertex="1" parent="1">
          <mxGeometry x="142" y="620" width="10" height="20" as="geometry" />
        </mxCell>
        <mxCell id="8xyQKnSqyoeRqNO3VlQX-376" value="" style="rounded=0;whiteSpace=wrap;html=1;fillColor=#e5dc7b;" vertex="1" parent="1">
          <mxGeometry x="152" y="620" width="10" height="20" as="geometry" />
        </mxCell>
        <mxCell id="8xyQKnSqyoeRqNO3VlQX-377" value="" style="rounded=0;whiteSpace=wrap;html=1;fillColor=#e5dc7b;" vertex="1" parent="1">
          <mxGeometry x="162" y="620" width="10" height="20" as="geometry" />
        </mxCell>
        <mxCell id="8xyQKnSqyoeRqNO3VlQX-378" value="" style="rounded=0;whiteSpace=wrap;html=1;fillColor=#e5dc7b;" vertex="1" parent="1">
          <mxGeometry x="172" y="620" width="10" height="20" as="geometry" />
        </mxCell>
        <mxCell id="8xyQKnSqyoeRqNO3VlQX-379" value="" style="rounded=0;whiteSpace=wrap;html=1;fillColor=#e5dc7b;" vertex="1" parent="1">
          <mxGeometry x="182" y="620" width="10" height="20" as="geometry" />
        </mxCell>
        <mxCell id="8xyQKnSqyoeRqNO3VlQX-380" value="" style="rounded=0;whiteSpace=wrap;html=1;fillColor=#e5dc7b;" vertex="1" parent="1">
          <mxGeometry x="192" y="620" width="10" height="20" as="geometry" />
        </mxCell>
        <mxCell id="8xyQKnSqyoeRqNO3VlQX-381" value="" style="rounded=0;whiteSpace=wrap;html=1;fillColor=#e5dc7b;" vertex="1" parent="1">
          <mxGeometry x="202" y="620" width="10" height="20" as="geometry" />
        </mxCell>
        <mxCell id="8xyQKnSqyoeRqNO3VlQX-382" value="" style="rounded=0;whiteSpace=wrap;html=1;fillColor=#e5dc7b;" vertex="1" parent="1">
          <mxGeometry x="212" y="620" width="10" height="20" as="geometry" />
        </mxCell>
        <mxCell id="8xyQKnSqyoeRqNO3VlQX-383" value="" style="rounded=0;whiteSpace=wrap;html=1;fillColor=#e5dc7b;" vertex="1" parent="1">
          <mxGeometry x="222" y="620" width="10" height="20" as="geometry" />
        </mxCell>
        <mxCell id="8xyQKnSqyoeRqNO3VlQX-384" value="" style="rounded=0;whiteSpace=wrap;html=1;fillColor=#e5dc7b;" vertex="1" parent="1">
          <mxGeometry x="232" y="620" width="10" height="20" as="geometry" />
        </mxCell>
        <mxCell id="8xyQKnSqyoeRqNO3VlQX-385" value="" style="rounded=0;whiteSpace=wrap;html=1;fillColor=#e5dc7b;" vertex="1" parent="1">
          <mxGeometry x="242" y="620" width="10" height="20" as="geometry" />
        </mxCell>
        <mxCell id="8xyQKnSqyoeRqNO3VlQX-386" value="" style="rounded=0;whiteSpace=wrap;html=1;fillColor=#e5dc7b;" vertex="1" parent="1">
          <mxGeometry x="252" y="620" width="10" height="20" as="geometry" />
        </mxCell>
        <mxCell id="8xyQKnSqyoeRqNO3VlQX-387" value="" style="rounded=0;whiteSpace=wrap;html=1;fillColor=#e5dc7b;" vertex="1" parent="1">
          <mxGeometry x="262" y="620" width="10" height="20" as="geometry" />
        </mxCell>
        <mxCell id="8xyQKnSqyoeRqNO3VlQX-388" value="" style="rounded=0;whiteSpace=wrap;html=1;fillColor=#e5dc7b;" vertex="1" parent="1">
          <mxGeometry x="272" y="620" width="10" height="20" as="geometry" />
        </mxCell>
        <mxCell id="8xyQKnSqyoeRqNO3VlQX-389" value="" style="rounded=0;whiteSpace=wrap;html=1;fillColor=#e5dc7b;" vertex="1" parent="1">
          <mxGeometry x="282" y="620" width="10" height="20" as="geometry" />
        </mxCell>
        <mxCell id="8xyQKnSqyoeRqNO3VlQX-390" value="" style="rounded=0;whiteSpace=wrap;html=1;fillColor=#e5dc7b;" vertex="1" parent="1">
          <mxGeometry x="292" y="620" width="10" height="20" as="geometry" />
        </mxCell>
        <mxCell id="8xyQKnSqyoeRqNO3VlQX-391" value="" style="rounded=0;whiteSpace=wrap;html=1;fillColor=#e5dc7b;" vertex="1" parent="1">
          <mxGeometry x="302" y="620" width="10" height="20" as="geometry" />
        </mxCell>
        <mxCell id="8xyQKnSqyoeRqNO3VlQX-392" value="" style="rounded=0;whiteSpace=wrap;html=1;fillColor=#e5dc7b;" vertex="1" parent="1">
          <mxGeometry x="312" y="620" width="10" height="20" as="geometry" />
        </mxCell>
        <mxCell id="8xyQKnSqyoeRqNO3VlQX-393" value="" style="rounded=0;whiteSpace=wrap;html=1;fillColor=#e5dc7b;" vertex="1" parent="1">
          <mxGeometry x="322" y="620" width="10" height="20" as="geometry" />
        </mxCell>
        <mxCell id="8xyQKnSqyoeRqNO3VlQX-394" value="" style="rounded=0;whiteSpace=wrap;html=1;fillColor=#e5dc7b;" vertex="1" parent="1">
          <mxGeometry x="332" y="620" width="10" height="20" as="geometry" />
        </mxCell>
        <mxCell id="8xyQKnSqyoeRqNO3VlQX-395" value="" style="rounded=0;whiteSpace=wrap;html=1;fillColor=#e5dc7b;" vertex="1" parent="1">
          <mxGeometry x="342" y="620" width="10" height="20" as="geometry" />
        </mxCell>
        <mxCell id="8xyQKnSqyoeRqNO3VlQX-396" value="" style="rounded=0;whiteSpace=wrap;html=1;fillColor=#e5dc7b;" vertex="1" parent="1">
          <mxGeometry x="352" y="620" width="10" height="20" as="geometry" />
        </mxCell>
        <mxCell id="8xyQKnSqyoeRqNO3VlQX-397" value="" style="rounded=0;whiteSpace=wrap;html=1;fillColor=#e5dc7b;" vertex="1" parent="1">
          <mxGeometry x="362" y="620" width="10" height="20" as="geometry" />
        </mxCell>
        <mxCell id="8xyQKnSqyoeRqNO3VlQX-398" value="" style="rounded=0;whiteSpace=wrap;html=1;fillColor=#e5dc7b;" vertex="1" parent="1">
          <mxGeometry x="372" y="620" width="10" height="20" as="geometry" />
        </mxCell>
        <mxCell id="8xyQKnSqyoeRqNO3VlQX-399" value="" style="rounded=0;whiteSpace=wrap;html=1;fillColor=#e5dc7b;" vertex="1" parent="1">
          <mxGeometry x="382" y="620" width="10" height="20" as="geometry" />
        </mxCell>
        <mxCell id="8xyQKnSqyoeRqNO3VlQX-400" value="" style="rounded=0;whiteSpace=wrap;html=1;fillColor=#e5dc7b;" vertex="1" parent="1">
          <mxGeometry x="392" y="620" width="10" height="20" as="geometry" />
        </mxCell>
        <mxCell id="8xyQKnSqyoeRqNO3VlQX-401" value="" style="rounded=0;whiteSpace=wrap;html=1;fillColor=#e5dc7b;" vertex="1" parent="1">
          <mxGeometry x="402" y="620" width="10" height="20" as="geometry" />
        </mxCell>
        <mxCell id="8xyQKnSqyoeRqNO3VlQX-402" value="" style="rounded=0;whiteSpace=wrap;html=1;fillColor=#e5dc7b;" vertex="1" parent="1">
          <mxGeometry x="412" y="620" width="10" height="20" as="geometry" />
        </mxCell>
        <mxCell id="8xyQKnSqyoeRqNO3VlQX-403" value="" style="rounded=0;whiteSpace=wrap;html=1;fillColor=#e5dc7b;" vertex="1" parent="1">
          <mxGeometry x="422" y="620" width="10" height="20" as="geometry" />
        </mxCell>
        <mxCell id="8xyQKnSqyoeRqNO3VlQX-404" value="" style="rounded=0;whiteSpace=wrap;html=1;fillColor=#e5dc7b;" vertex="1" parent="1">
          <mxGeometry x="652" y="620" width="10" height="20" as="geometry" />
        </mxCell>
        <mxCell id="8xyQKnSqyoeRqNO3VlQX-405" value="" style="rounded=0;whiteSpace=wrap;html=1;fillColor=#e5dc7b;" vertex="1" parent="1">
          <mxGeometry x="668" y="620" width="10" height="20" as="geometry" />
        </mxCell>
        <mxCell id="8xyQKnSqyoeRqNO3VlQX-406" value="" style="rounded=0;whiteSpace=wrap;html=1;fillColor=#e5dc7b;" vertex="1" parent="1">
          <mxGeometry x="678" y="620" width="10" height="20" as="geometry" />
        </mxCell>
        <mxCell id="8xyQKnSqyoeRqNO3VlQX-407" value="" style="rounded=0;whiteSpace=wrap;html=1;fillColor=#e5dc7b;" vertex="1" parent="1">
          <mxGeometry x="688" y="620" width="10" height="20" as="geometry" />
        </mxCell>
        <mxCell id="8xyQKnSqyoeRqNO3VlQX-408" value="" style="rounded=0;whiteSpace=wrap;html=1;fillColor=#e5dc7b;" vertex="1" parent="1">
          <mxGeometry x="698" y="620" width="10" height="20" as="geometry" />
        </mxCell>
        <mxCell id="8xyQKnSqyoeRqNO3VlQX-409" value="" style="rounded=0;whiteSpace=wrap;html=1;fillColor=#e5dc7b;" vertex="1" parent="1">
          <mxGeometry x="708" y="620" width="10" height="20" as="geometry" />
        </mxCell>
        <mxCell id="8xyQKnSqyoeRqNO3VlQX-410" value="" style="rounded=0;whiteSpace=wrap;html=1;fillColor=#e5dc7b;" vertex="1" parent="1">
          <mxGeometry x="718" y="620" width="10" height="20" as="geometry" />
        </mxCell>
        <mxCell id="8xyQKnSqyoeRqNO3VlQX-411" value="" style="rounded=0;whiteSpace=wrap;html=1;fillColor=#e5dc7b;" vertex="1" parent="1">
          <mxGeometry x="728" y="620" width="10" height="20" as="geometry" />
        </mxCell>
        <mxCell id="8xyQKnSqyoeRqNO3VlQX-412" value="" style="rounded=0;whiteSpace=wrap;html=1;fillColor=#e5dc7b;" vertex="1" parent="1">
          <mxGeometry x="738" y="620" width="10" height="20" as="geometry" />
        </mxCell>
        <mxCell id="8xyQKnSqyoeRqNO3VlQX-413" value="" style="rounded=0;whiteSpace=wrap;html=1;fillColor=#e5dc7b;" vertex="1" parent="1">
          <mxGeometry x="748" y="620" width="10" height="20" as="geometry" />
        </mxCell>
        <mxCell id="8xyQKnSqyoeRqNO3VlQX-414" value="" style="rounded=0;whiteSpace=wrap;html=1;fillColor=#e5dc7b;" vertex="1" parent="1">
          <mxGeometry x="758" y="620" width="10" height="20" as="geometry" />
        </mxCell>
        <mxCell id="8xyQKnSqyoeRqNO3VlQX-415" value="" style="rounded=0;whiteSpace=wrap;html=1;fillColor=#e5dc7b;" vertex="1" parent="1">
          <mxGeometry x="768" y="620" width="10" height="20" as="geometry" />
        </mxCell>
        <mxCell id="8xyQKnSqyoeRqNO3VlQX-416" value="" style="rounded=0;whiteSpace=wrap;html=1;fillColor=#e5dc7b;" vertex="1" parent="1">
          <mxGeometry x="778" y="620" width="10" height="20" as="geometry" />
        </mxCell>
        <mxCell id="8xyQKnSqyoeRqNO3VlQX-417" value="" style="rounded=0;whiteSpace=wrap;html=1;fillColor=#e5dc7b;" vertex="1" parent="1">
          <mxGeometry x="788" y="620" width="10" height="20" as="geometry" />
        </mxCell>
        <mxCell id="8xyQKnSqyoeRqNO3VlQX-418" value="" style="rounded=0;whiteSpace=wrap;html=1;fillColor=#e5dc7b;" vertex="1" parent="1">
          <mxGeometry x="798" y="620" width="10" height="20" as="geometry" />
        </mxCell>
        <mxCell id="8xyQKnSqyoeRqNO3VlQX-419" value="" style="rounded=0;whiteSpace=wrap;html=1;fillColor=#e5dc7b;" vertex="1" parent="1">
          <mxGeometry x="808" y="620" width="10" height="20" as="geometry" />
        </mxCell>
        <mxCell id="8xyQKnSqyoeRqNO3VlQX-420" value="" style="rounded=0;whiteSpace=wrap;html=1;fillColor=#e5dc7b;" vertex="1" parent="1">
          <mxGeometry x="818" y="620" width="10" height="20" as="geometry" />
        </mxCell>
        <mxCell id="8xyQKnSqyoeRqNO3VlQX-421" value="" style="rounded=0;whiteSpace=wrap;html=1;fillColor=#e5dc7b;" vertex="1" parent="1">
          <mxGeometry x="828" y="620" width="10" height="20" as="geometry" />
        </mxCell>
        <mxCell id="8xyQKnSqyoeRqNO3VlQX-422" value="" style="rounded=0;whiteSpace=wrap;html=1;fillColor=#e5dc7b;" vertex="1" parent="1">
          <mxGeometry x="838" y="620" width="10" height="20" as="geometry" />
        </mxCell>
        <mxCell id="8xyQKnSqyoeRqNO3VlQX-423" value="" style="rounded=0;whiteSpace=wrap;html=1;fillColor=#e5dc7b;" vertex="1" parent="1">
          <mxGeometry x="848" y="620" width="10" height="20" as="geometry" />
        </mxCell>
        <mxCell id="8xyQKnSqyoeRqNO3VlQX-424" value="" style="rounded=0;whiteSpace=wrap;html=1;fillColor=#e5dc7b;" vertex="1" parent="1">
          <mxGeometry x="858" y="620" width="10" height="20" as="geometry" />
        </mxCell>
        <mxCell id="8xyQKnSqyoeRqNO3VlQX-425" value="" style="rounded=0;whiteSpace=wrap;html=1;fillColor=#e5dc7b;" vertex="1" parent="1">
          <mxGeometry x="868" y="620" width="10" height="20" as="geometry" />
        </mxCell>
        <mxCell id="8xyQKnSqyoeRqNO3VlQX-426" value="" style="rounded=0;whiteSpace=wrap;html=1;fillColor=#e5dc7b;" vertex="1" parent="1">
          <mxGeometry x="878" y="620" width="10" height="20" as="geometry" />
        </mxCell>
        <mxCell id="8xyQKnSqyoeRqNO3VlQX-427" value="" style="rounded=0;whiteSpace=wrap;html=1;fillColor=#e5dc7b;" vertex="1" parent="1">
          <mxGeometry x="888" y="620" width="10" height="20" as="geometry" />
        </mxCell>
        <mxCell id="8xyQKnSqyoeRqNO3VlQX-428" value="" style="rounded=0;whiteSpace=wrap;html=1;fillColor=#e5dc7b;" vertex="1" parent="1">
          <mxGeometry x="898" y="620" width="10" height="20" as="geometry" />
        </mxCell>
        <mxCell id="8xyQKnSqyoeRqNO3VlQX-429" value="" style="rounded=0;whiteSpace=wrap;html=1;fillColor=#e5dc7b;" vertex="1" parent="1">
          <mxGeometry x="908" y="620" width="10" height="20" as="geometry" />
        </mxCell>
        <mxCell id="8xyQKnSqyoeRqNO3VlQX-430" value="" style="rounded=0;whiteSpace=wrap;html=1;fillColor=#e5dc7b;" vertex="1" parent="1">
          <mxGeometry x="918" y="620" width="10" height="20" as="geometry" />
        </mxCell>
        <mxCell id="8xyQKnSqyoeRqNO3VlQX-431" value="" style="rounded=0;whiteSpace=wrap;html=1;fillColor=#e5dc7b;" vertex="1" parent="1">
          <mxGeometry x="928" y="620" width="10" height="20" as="geometry" />
        </mxCell>
        <mxCell id="8xyQKnSqyoeRqNO3VlQX-432" value="" style="rounded=0;whiteSpace=wrap;html=1;fillColor=#e5dc7b;" vertex="1" parent="1">
          <mxGeometry x="938" y="620" width="10" height="20" as="geometry" />
        </mxCell>
        <mxCell id="8xyQKnSqyoeRqNO3VlQX-433" value="" style="rounded=0;whiteSpace=wrap;html=1;fillColor=#e5dc7b;" vertex="1" parent="1">
          <mxGeometry x="948" y="620" width="10" height="20" as="geometry" />
        </mxCell>
        <mxCell id="8xyQKnSqyoeRqNO3VlQX-434" value="" style="rounded=0;whiteSpace=wrap;html=1;fillColor=#e5dc7b;" vertex="1" parent="1">
          <mxGeometry x="958" y="620" width="10" height="20" as="geometry" />
        </mxCell>
        <mxCell id="8xyQKnSqyoeRqNO3VlQX-435" value="" style="rounded=0;whiteSpace=wrap;html=1;fillColor=#e5dc7b;" vertex="1" parent="1">
          <mxGeometry x="968" y="620" width="10" height="20" as="geometry" />
        </mxCell>
        <mxCell id="8xyQKnSqyoeRqNO3VlQX-436" value="" style="rounded=0;whiteSpace=wrap;html=1;fillColor=#e5dc7b;" vertex="1" parent="1">
          <mxGeometry x="978" y="620" width="10" height="20" as="geometry" />
        </mxCell>
        <mxCell id="8xyQKnSqyoeRqNO3VlQX-437" value="" style="rounded=0;whiteSpace=wrap;html=1;fillColor=#e5dc7b;" vertex="1" parent="1">
          <mxGeometry x="988" y="620" width="10" height="20" as="geometry" />
        </mxCell>
        <mxCell id="8xyQKnSqyoeRqNO3VlQX-438" value="" style="rounded=0;whiteSpace=wrap;html=1;fillColor=#e5dc7b;" vertex="1" parent="1">
          <mxGeometry x="998" y="620" width="10" height="20" as="geometry" />
        </mxCell>
        <mxCell id="8xyQKnSqyoeRqNO3VlQX-439" value="" style="rounded=0;whiteSpace=wrap;html=1;fillColor=#e5dc7b;" vertex="1" parent="1">
          <mxGeometry x="1008" y="620" width="10" height="20" as="geometry" />
        </mxCell>
        <mxCell id="8xyQKnSqyoeRqNO3VlQX-440" value="" style="rounded=0;whiteSpace=wrap;html=1;fillColor=#e5dc7b;" vertex="1" parent="1">
          <mxGeometry x="1018" y="620" width="10" height="20" as="geometry" />
        </mxCell>
        <mxCell id="8xyQKnSqyoeRqNO3VlQX-441" value="" style="rounded=0;whiteSpace=wrap;html=1;fillColor=#e5dc7b;" vertex="1" parent="1">
          <mxGeometry x="1028" y="620" width="10" height="20" as="geometry" />
        </mxCell>
        <mxCell id="8xyQKnSqyoeRqNO3VlQX-442" value="" style="rounded=0;whiteSpace=wrap;html=1;fillColor=#e5dc7b;" vertex="1" parent="1">
          <mxGeometry x="1038" y="620" width="10" height="20" as="geometry" />
        </mxCell>
        <mxCell id="8xyQKnSqyoeRqNO3VlQX-443" value="" style="rounded=0;whiteSpace=wrap;html=1;fillColor=#e5dc7b;" vertex="1" parent="1">
          <mxGeometry x="662" y="620" width="10" height="20" as="geometry" />
        </mxCell>
        <mxCell id="8xyQKnSqyoeRqNO3VlQX-444" value="" style="rounded=0;whiteSpace=wrap;html=1;fillColor=#e5dc7b;" vertex="1" parent="1">
          <mxGeometry x="672" y="620" width="10" height="20" as="geometry" />
        </mxCell>
        <mxCell id="8xyQKnSqyoeRqNO3VlQX-445" value="" style="rounded=0;whiteSpace=wrap;html=1;fillColor=#e5dc7b;" vertex="1" parent="1">
          <mxGeometry x="682" y="620" width="10" height="20" as="geometry" />
        </mxCell>
        <mxCell id="8xyQKnSqyoeRqNO3VlQX-446" value="" style="rounded=0;whiteSpace=wrap;html=1;fillColor=#e5dc7b;" vertex="1" parent="1">
          <mxGeometry x="432" y="620" width="10" height="20" as="geometry" />
        </mxCell>
        <mxCell id="8xyQKnSqyoeRqNO3VlQX-447" value="" style="rounded=0;whiteSpace=wrap;html=1;fillColor=#e5dc7b;" vertex="1" parent="1">
          <mxGeometry x="-68" y="620" width="10" height="20" as="geometry" />
        </mxCell>
        <mxCell id="8xyQKnSqyoeRqNO3VlQX-448" value="" style="rounded=0;whiteSpace=wrap;html=1;fillColor=#e5dc7b;" vertex="1" parent="1">
          <mxGeometry x="-58" y="620" width="10" height="20" as="geometry" />
        </mxCell>
        <mxCell id="8xyQKnSqyoeRqNO3VlQX-449" value="" style="rounded=0;whiteSpace=wrap;html=1;fillColor=#e5dc7b;" vertex="1" parent="1">
          <mxGeometry x="-48" y="620" width="10" height="20" as="geometry" />
        </mxCell>
        <mxCell id="8xyQKnSqyoeRqNO3VlQX-450" value="" style="rounded=0;whiteSpace=wrap;html=1;fillColor=#e5dc7b;" vertex="1" parent="1">
          <mxGeometry x="-38" y="620" width="10" height="20" as="geometry" />
        </mxCell>
        <mxCell id="8xyQKnSqyoeRqNO3VlQX-451" value="" style="rounded=0;whiteSpace=wrap;html=1;fillColor=#e5dc7b;" vertex="1" parent="1">
          <mxGeometry x="-28" y="620" width="10" height="20" as="geometry" />
        </mxCell>
        <mxCell id="8xyQKnSqyoeRqNO3VlQX-452" value="" style="rounded=0;whiteSpace=wrap;html=1;fillColor=#e5dc7b;" vertex="1" parent="1">
          <mxGeometry x="-18" y="620" width="10" height="20" as="geometry" />
        </mxCell>
        <mxCell id="8xyQKnSqyoeRqNO3VlQX-453" value="" style="rounded=0;whiteSpace=wrap;html=1;fillColor=#e5dc7b;" vertex="1" parent="1">
          <mxGeometry x="-8" y="620" width="10" height="20" as="geometry" />
        </mxCell>
        <mxCell id="8xyQKnSqyoeRqNO3VlQX-454" value="" style="rounded=0;whiteSpace=wrap;html=1;fillColor=#e5dc7b;" vertex="1" parent="1">
          <mxGeometry x="2" y="620" width="10" height="20" as="geometry" />
        </mxCell>
        <mxCell id="8xyQKnSqyoeRqNO3VlQX-455" value="" style="rounded=0;whiteSpace=wrap;html=1;fillColor=#e5dc7b;" vertex="1" parent="1">
          <mxGeometry x="12" y="620" width="10" height="20" as="geometry" />
        </mxCell>
        <mxCell id="8xyQKnSqyoeRqNO3VlQX-456" value="" style="rounded=0;whiteSpace=wrap;html=1;fillColor=#e5dc7b;" vertex="1" parent="1">
          <mxGeometry x="22" y="620" width="10" height="20" as="geometry" />
        </mxCell>
        <mxCell id="8xyQKnSqyoeRqNO3VlQX-457" value="" style="rounded=0;whiteSpace=wrap;html=1;fillColor=#e5dc7b;" vertex="1" parent="1">
          <mxGeometry x="32" y="620" width="10" height="20" as="geometry" />
        </mxCell>
        <mxCell id="8xyQKnSqyoeRqNO3VlQX-458" value="" style="rounded=0;whiteSpace=wrap;html=1;fillColor=#e5dc7b;" vertex="1" parent="1">
          <mxGeometry x="42" y="620" width="10" height="20" as="geometry" />
        </mxCell>
        <mxCell id="8xyQKnSqyoeRqNO3VlQX-459" value="" style="rounded=0;whiteSpace=wrap;html=1;fillColor=#e5dc7b;" vertex="1" parent="1">
          <mxGeometry x="1048" y="620" width="10" height="20" as="geometry" />
        </mxCell>
        <mxCell id="8xyQKnSqyoeRqNO3VlQX-460" value="" style="rounded=0;whiteSpace=wrap;html=1;fillColor=#e5dc7b;" vertex="1" parent="1">
          <mxGeometry x="1058" y="620" width="10" height="20" as="geometry" />
        </mxCell>
        <mxCell id="8xyQKnSqyoeRqNO3VlQX-461" value="" style="rounded=0;whiteSpace=wrap;html=1;fillColor=#e5dc7b;" vertex="1" parent="1">
          <mxGeometry x="1068" y="620" width="10" height="20" as="geometry" />
        </mxCell>
        <mxCell id="8xyQKnSqyoeRqNO3VlQX-462" value="" style="rounded=0;whiteSpace=wrap;html=1;fillColor=#e5dc7b;" vertex="1" parent="1">
          <mxGeometry x="1078" y="620" width="10" height="20" as="geometry" />
        </mxCell>
        <mxCell id="8xyQKnSqyoeRqNO3VlQX-463" value="" style="rounded=0;whiteSpace=wrap;html=1;fillColor=#e5dc7b;" vertex="1" parent="1">
          <mxGeometry x="1088" y="620" width="10" height="20" as="geometry" />
        </mxCell>
        <mxCell id="8xyQKnSqyoeRqNO3VlQX-464" value="" style="rounded=0;whiteSpace=wrap;html=1;fillColor=#e5dc7b;" vertex="1" parent="1">
          <mxGeometry x="1098" y="620" width="10" height="20" as="geometry" />
        </mxCell>
        <mxCell id="8xyQKnSqyoeRqNO3VlQX-465" value="" style="rounded=0;whiteSpace=wrap;html=1;fillColor=#e5dc7b;" vertex="1" parent="1">
          <mxGeometry x="1108" y="620" width="10" height="20" as="geometry" />
        </mxCell>
        <mxCell id="8xyQKnSqyoeRqNO3VlQX-466" value="" style="rounded=0;whiteSpace=wrap;html=1;fillColor=#e5dc7b;" vertex="1" parent="1">
          <mxGeometry x="1118" y="620" width="10" height="20" as="geometry" />
        </mxCell>
        <mxCell id="8xyQKnSqyoeRqNO3VlQX-467" value="" style="rounded=0;whiteSpace=wrap;html=1;fillColor=#e5dc7b;" vertex="1" parent="1">
          <mxGeometry x="1128" y="620" width="10" height="20" as="geometry" />
        </mxCell>
        <mxCell id="8xyQKnSqyoeRqNO3VlQX-468" value="" style="rounded=0;whiteSpace=wrap;html=1;fillColor=#e5dc7b;" vertex="1" parent="1">
          <mxGeometry x="1138" y="620" width="10" height="20" as="geometry" />
        </mxCell>
        <mxCell id="8xyQKnSqyoeRqNO3VlQX-469" value="" style="shape=or;whiteSpace=wrap;html=1;direction=south;" vertex="1" parent="1">
          <mxGeometry x="530" y="620" width="20" height="30" as="geometry" />
        </mxCell>
        <mxCell id="8xyQKnSqyoeRqNO3VlQX-470" style="edgeStyle=orthogonalEdgeStyle;rounded=0;orthogonalLoop=1;jettySize=auto;html=1;exitX=0.25;exitY=1;exitDx=0;exitDy=0;entryX=1;entryY=0.5;entryDx=0;entryDy=0;strokeWidth=2;strokeColor=#b85450;endArrow=none;endFill=0;fillColor=#dae8fc;fontColor=#b85450;" edge="1" parent="1" target="8xyQKnSqyoeRqNO3VlQX-477">
          <mxGeometry relative="1" as="geometry">
            <mxPoint x="442" y="735" as="sourcePoint" />
            <Array as="points">
              <mxPoint x="402" y="735" />
              <mxPoint x="402" y="720" />
            </Array>
          </mxGeometry>
        </mxCell>
        <mxCell id="8xyQKnSqyoeRqNO3VlQX-471" style="edgeStyle=orthogonalEdgeStyle;rounded=0;orthogonalLoop=1;jettySize=auto;html=1;exitX=0.75;exitY=1;exitDx=0;exitDy=0;strokeWidth=2;strokeColor=#b85450;endArrow=none;endFill=0;fillColor=#dae8fc;fontColor=#b85450;" edge="1" parent="1" target="8xyQKnSqyoeRqNO3VlQX-472">
          <mxGeometry relative="1" as="geometry">
            <mxPoint x="442" y="800" as="sourcePoint" />
            <Array as="points">
              <mxPoint x="402" y="799" />
              <mxPoint x="402" y="812" />
            </Array>
          </mxGeometry>
        </mxCell>
        <mxCell id="8xyQKnSqyoeRqNO3VlQX-472" value="&lt;font style=&quot;font-size: 14px;&quot; color=&quot;#ababab&quot;&gt;DQ&lt;/font&gt;&lt;div style=&quot;font-size: 14px;&quot;&gt;&lt;font color=&quot;#ababab&quot;&gt;x4&lt;/font&gt;&lt;/div&gt;" style="rounded=0;whiteSpace=wrap;html=1;strokeColor=#454744;fillColor=#464646;" vertex="1" parent="1">
          <mxGeometry x="-58" y="772" width="60" height="80" as="geometry" />
        </mxCell>
        <mxCell id="8xyQKnSqyoeRqNO3VlQX-473" value="&lt;font style=&quot;font-size: 14px;&quot; color=&quot;#ababab&quot;&gt;DQ&lt;/font&gt;&lt;div style=&quot;font-size: 14px;&quot;&gt;&lt;font color=&quot;#ababab&quot;&gt;x4&lt;/font&gt;&lt;/div&gt;" style="rounded=0;whiteSpace=wrap;html=1;strokeColor=#454744;fillColor=#464646;" vertex="1" parent="1">
          <mxGeometry x="22" y="772" width="60" height="80" as="geometry" />
        </mxCell>
        <mxCell id="8xyQKnSqyoeRqNO3VlQX-474" value="&lt;font style=&quot;font-size: 14px;&quot; color=&quot;#ababab&quot;&gt;DQ&lt;/font&gt;&lt;div style=&quot;font-size: 14px;&quot;&gt;&lt;font color=&quot;#ababab&quot;&gt;x4&lt;/font&gt;&lt;/div&gt;" style="rounded=0;whiteSpace=wrap;html=1;strokeColor=#454744;fillColor=#464646;" vertex="1" parent="1">
          <mxGeometry x="102" y="772" width="60" height="80" as="geometry" />
        </mxCell>
        <mxCell id="8xyQKnSqyoeRqNO3VlQX-475" value="&lt;font style=&quot;font-size: 14px;&quot; color=&quot;#ababab&quot;&gt;DQ&lt;/font&gt;&lt;div style=&quot;font-size: 14px;&quot;&gt;&lt;font color=&quot;#ababab&quot;&gt;x4&lt;/font&gt;&lt;/div&gt;" style="rounded=0;whiteSpace=wrap;html=1;strokeColor=#454744;fillColor=#464646;" vertex="1" parent="1">
          <mxGeometry x="182" y="772" width="60" height="80" as="geometry" />
        </mxCell>
        <mxCell id="8xyQKnSqyoeRqNO3VlQX-476" value="&lt;font style=&quot;font-size: 14px;&quot; color=&quot;#ababab&quot;&gt;ECC&lt;/font&gt;&lt;div style=&quot;font-size: 14px;&quot;&gt;&lt;font color=&quot;#ababab&quot;&gt;x4&lt;/font&gt;&lt;/div&gt;" style="rounded=0;whiteSpace=wrap;html=1;strokeColor=#454744;fillColor=#464646;" vertex="1" parent="1">
          <mxGeometry x="262" y="772" width="60" height="80" as="geometry" />
        </mxCell>
        <mxCell id="8xyQKnSqyoeRqNO3VlQX-477" value="&lt;font color=&quot;#ababab&quot; style=&quot;font-size: 14px;&quot;&gt;DQ&lt;/font&gt;&lt;div style=&quot;font-size: 14px;&quot;&gt;&lt;font color=&quot;#ababab&quot; style=&quot;font-size: 14px;&quot;&gt;x4&lt;/font&gt;&lt;/div&gt;" style="rounded=0;whiteSpace=wrap;html=1;strokeColor=#454744;fillColor=#464646;" vertex="1" parent="1">
          <mxGeometry x="-58" y="680" width="60" height="80" as="geometry" />
        </mxCell>
        <mxCell id="8xyQKnSqyoeRqNO3VlQX-478" value="&lt;font style=&quot;font-size: 14px;&quot; color=&quot;#ababab&quot;&gt;DQ&lt;/font&gt;&lt;div style=&quot;font-size: 14px;&quot;&gt;&lt;font color=&quot;#ababab&quot;&gt;x4&lt;/font&gt;&lt;/div&gt;" style="rounded=0;whiteSpace=wrap;html=1;strokeColor=#454744;fillColor=#464646;" vertex="1" parent="1">
          <mxGeometry x="22" y="680" width="60" height="80" as="geometry" />
        </mxCell>
        <mxCell id="8xyQKnSqyoeRqNO3VlQX-479" value="&lt;font style=&quot;font-size: 14px;&quot; color=&quot;#ababab&quot;&gt;DQ&lt;/font&gt;&lt;div style=&quot;font-size: 14px;&quot;&gt;&lt;font color=&quot;#ababab&quot;&gt;x4&lt;/font&gt;&lt;/div&gt;" style="rounded=0;whiteSpace=wrap;html=1;strokeColor=#454744;fillColor=#464646;" vertex="1" parent="1">
          <mxGeometry x="102" y="680" width="60" height="80" as="geometry" />
        </mxCell>
        <mxCell id="8xyQKnSqyoeRqNO3VlQX-480" value="&lt;font style=&quot;font-size: 14px;&quot; color=&quot;#ababab&quot;&gt;DQ&lt;/font&gt;&lt;div style=&quot;font-size: 14px;&quot;&gt;&lt;font color=&quot;#ababab&quot;&gt;x4&lt;/font&gt;&lt;/div&gt;" style="rounded=0;whiteSpace=wrap;html=1;strokeColor=#454744;fillColor=#464646;" vertex="1" parent="1">
          <mxGeometry x="182" y="680" width="60" height="80" as="geometry" />
        </mxCell>
        <mxCell id="8xyQKnSqyoeRqNO3VlQX-481" value="&lt;font style=&quot;font-size: 14px;&quot; color=&quot;#ababab&quot;&gt;ECC&lt;/font&gt;&lt;div style=&quot;font-size: 14px;&quot;&gt;&lt;font color=&quot;#ababab&quot;&gt;x4&lt;/font&gt;&lt;/div&gt;" style="rounded=0;whiteSpace=wrap;html=1;strokeColor=#454744;fillColor=#464646;" vertex="1" parent="1">
          <mxGeometry x="262" y="680" width="60" height="80" as="geometry" />
        </mxCell>
        <mxCell id="8xyQKnSqyoeRqNO3VlQX-486" value="QACS1_A" style="text;html=1;align=center;verticalAlign=middle;whiteSpace=wrap;rounded=0;fontColor=#b85450;fontStyle=0" vertex="1" parent="1">
          <mxGeometry x="337" y="810" width="60" height="30" as="geometry" />
        </mxCell>
        <mxCell id="8xyQKnSqyoeRqNO3VlQX-487" value="QBCS1_A" style="text;html=1;align=center;verticalAlign=middle;whiteSpace=wrap;rounded=0;fontColor=#b85450;fontStyle=0" vertex="1" parent="1">
          <mxGeometry x="337" y="690" width="60" height="30" as="geometry" />
        </mxCell>
        <mxCell id="8xyQKnSqyoeRqNO3VlQX-488" style="edgeStyle=orthogonalEdgeStyle;rounded=0;orthogonalLoop=1;jettySize=auto;html=1;exitX=0.25;exitY=0;exitDx=0;exitDy=0;strokeWidth=2;strokeColor=#9673a6;endArrow=none;endFill=0;fillColor=#d5e8d4;" edge="1" parent="1" target="8xyQKnSqyoeRqNO3VlQX-493">
          <mxGeometry relative="1" as="geometry">
            <mxPoint x="637" y="735" as="sourcePoint" />
            <Array as="points">
              <mxPoint x="677" y="735" />
              <mxPoint x="677" y="720" />
            </Array>
          </mxGeometry>
        </mxCell>
        <mxCell id="8xyQKnSqyoeRqNO3VlQX-489" value="&lt;font style=&quot;font-size: 14px;&quot; color=&quot;#ababab&quot;&gt;ECC&lt;/font&gt;&lt;div style=&quot;font-size: 14px;&quot;&gt;&lt;font color=&quot;#ababab&quot;&gt;x4&lt;/font&gt;&lt;/div&gt;" style="rounded=0;whiteSpace=wrap;html=1;strokeColor=#454744;fillColor=#464646;" vertex="1" parent="1">
          <mxGeometry x="758" y="680" width="60" height="80" as="geometry" />
        </mxCell>
        <mxCell id="8xyQKnSqyoeRqNO3VlQX-490" value="&lt;font style=&quot;font-size: 14px;&quot; color=&quot;#ababab&quot;&gt;DQ&lt;/font&gt;&lt;div style=&quot;font-size: 14px;&quot;&gt;&lt;font color=&quot;#ababab&quot;&gt;x4&lt;/font&gt;&lt;/div&gt;" style="rounded=0;whiteSpace=wrap;html=1;strokeColor=#454744;fillColor=#464646;" vertex="1" parent="1">
          <mxGeometry x="838" y="680" width="60" height="80" as="geometry" />
        </mxCell>
        <mxCell id="8xyQKnSqyoeRqNO3VlQX-491" value="&lt;font style=&quot;font-size: 14px;&quot; color=&quot;#ababab&quot;&gt;DQ&lt;/font&gt;&lt;div style=&quot;font-size: 14px;&quot;&gt;&lt;font color=&quot;#ababab&quot;&gt;x4&lt;/font&gt;&lt;/div&gt;" style="rounded=0;whiteSpace=wrap;html=1;strokeColor=#454744;fillColor=#464646;" vertex="1" parent="1">
          <mxGeometry x="918" y="680" width="60" height="80" as="geometry" />
        </mxCell>
        <mxCell id="8xyQKnSqyoeRqNO3VlQX-492" value="&lt;font style=&quot;font-size: 14px;&quot; color=&quot;#ababab&quot;&gt;DQ&lt;/font&gt;&lt;div style=&quot;font-size: 14px;&quot;&gt;&lt;font color=&quot;#ababab&quot;&gt;x4&lt;/font&gt;&lt;/div&gt;" style="rounded=0;whiteSpace=wrap;html=1;strokeColor=#454744;fillColor=#464646;" vertex="1" parent="1">
          <mxGeometry x="998" y="680" width="60" height="80" as="geometry" />
        </mxCell>
        <mxCell id="8xyQKnSqyoeRqNO3VlQX-493" value="&lt;font style=&quot;font-size: 14px;&quot; color=&quot;#ababab&quot;&gt;DQ&lt;/font&gt;&lt;div style=&quot;font-size: 14px;&quot;&gt;&lt;font color=&quot;#ababab&quot;&gt;x4&lt;/font&gt;&lt;/div&gt;" style="rounded=0;whiteSpace=wrap;html=1;strokeColor=#454744;fillColor=#464646;" vertex="1" parent="1">
          <mxGeometry x="1078" y="680" width="60" height="80" as="geometry" />
        </mxCell>
        <mxCell id="8xyQKnSqyoeRqNO3VlQX-494" style="edgeStyle=orthogonalEdgeStyle;rounded=0;orthogonalLoop=1;jettySize=auto;html=1;exitX=0.25;exitY=0;exitDx=0;exitDy=0;strokeWidth=2;strokeColor=#9673a6;endArrow=none;endFill=0;entryX=0;entryY=0.5;entryDx=0;entryDy=0;fillColor=#d5e8d4;" edge="1" parent="1" target="8xyQKnSqyoeRqNO3VlQX-499">
          <mxGeometry relative="1" as="geometry">
            <mxPoint x="637" y="799" as="sourcePoint" />
            <mxPoint x="1078" y="784" as="targetPoint" />
            <Array as="points">
              <mxPoint x="677" y="799" />
              <mxPoint x="677" y="812" />
            </Array>
          </mxGeometry>
        </mxCell>
        <mxCell id="8xyQKnSqyoeRqNO3VlQX-495" value="&lt;font style=&quot;font-size: 14px;&quot; color=&quot;#ababab&quot;&gt;ECC&lt;/font&gt;&lt;div style=&quot;font-size: 14px;&quot;&gt;&lt;font color=&quot;#ababab&quot;&gt;x4&lt;/font&gt;&lt;/div&gt;" style="rounded=0;whiteSpace=wrap;html=1;strokeColor=#454744;fillColor=#464646;" vertex="1" parent="1">
          <mxGeometry x="758" y="772" width="60" height="80" as="geometry" />
        </mxCell>
        <mxCell id="8xyQKnSqyoeRqNO3VlQX-496" value="&lt;font style=&quot;font-size: 14px;&quot; color=&quot;#ababab&quot;&gt;DQ&lt;/font&gt;&lt;div style=&quot;font-size: 14px;&quot;&gt;&lt;font color=&quot;#ababab&quot;&gt;x4&lt;/font&gt;&lt;/div&gt;" style="rounded=0;whiteSpace=wrap;html=1;strokeColor=#454744;fillColor=#464646;" vertex="1" parent="1">
          <mxGeometry x="838" y="772" width="60" height="80" as="geometry" />
        </mxCell>
        <mxCell id="8xyQKnSqyoeRqNO3VlQX-497" value="&lt;font style=&quot;font-size: 14px;&quot; color=&quot;#ababab&quot;&gt;DQ&lt;/font&gt;&lt;div style=&quot;font-size: 14px;&quot;&gt;&lt;font color=&quot;#ababab&quot;&gt;x4&lt;/font&gt;&lt;/div&gt;" style="rounded=0;whiteSpace=wrap;html=1;strokeColor=#454744;fillColor=#464646;" vertex="1" parent="1">
          <mxGeometry x="918" y="772" width="60" height="80" as="geometry" />
        </mxCell>
        <mxCell id="8xyQKnSqyoeRqNO3VlQX-498" value="&lt;font style=&quot;font-size: 14px;&quot; color=&quot;#ababab&quot;&gt;DQ&lt;/font&gt;&lt;div style=&quot;font-size: 14px;&quot;&gt;&lt;font color=&quot;#ababab&quot;&gt;x4&lt;/font&gt;&lt;/div&gt;" style="rounded=0;whiteSpace=wrap;html=1;strokeColor=#454744;fillColor=#464646;" vertex="1" parent="1">
          <mxGeometry x="998" y="772" width="60" height="80" as="geometry" />
        </mxCell>
        <mxCell id="8xyQKnSqyoeRqNO3VlQX-499" value="&lt;font style=&quot;font-size: 14px;&quot; color=&quot;#ababab&quot;&gt;DQ&lt;/font&gt;&lt;div style=&quot;font-size: 14px;&quot;&gt;&lt;font color=&quot;#ababab&quot;&gt;x4&lt;/font&gt;&lt;/div&gt;" style="rounded=0;whiteSpace=wrap;html=1;strokeColor=#454744;fillColor=#464646;" vertex="1" parent="1">
          <mxGeometry x="1078" y="772" width="60" height="80" as="geometry" />
        </mxCell>
        <mxCell id="8xyQKnSqyoeRqNO3VlQX-504" value="QACS1_B" style="text;html=1;align=center;verticalAlign=middle;whiteSpace=wrap;rounded=0;fontColor=#9673a6;fontStyle=0" vertex="1" parent="1">
          <mxGeometry x="688" y="810" width="60" height="30" as="geometry" />
        </mxCell>
        <mxCell id="8xyQKnSqyoeRqNO3VlQX-505" value="QBCS1_B" style="text;html=1;align=center;verticalAlign=middle;whiteSpace=wrap;rounded=0;fontColor=#9673a6;fontStyle=0" vertex="1" parent="1">
          <mxGeometry x="686" y="690" width="60" height="30" as="geometry" />
        </mxCell>
      </root>
    </mxGraphModel>
  </diagram>
</mxfile>
